<?xml version="1.0" standalone="no"?>
<!DOCTYPE svg PUBLIC "-//W3C//DTD SVG 20010904//EN"
 "http://www.w3.org/TR/2001/REC-SVG-20010904/DTD/svg10.dtd">
<svg version="1.0" xmlns="http://www.w3.org/2000/svg"
 width="700.000000pt" height="700.000000pt" viewBox="0 0 700.000000 700.000000"
 preserveAspectRatio="xMidYMid meet">
<metadata>
Created by potrace 1.14, written by Peter Selinger 2001-2017
</metadata>
<g transform="translate(0.000000,700.000000) scale(0.100000,-0.100000)"
fill="#000000" stroke="none">
<path d="M2677 6896 c-67 -92 -243 -280 -342 -366 -442 -383 -1014 -597 -1580
-591 -71 1 -143 3 -160 5 -16 2 -61 6 -100 10 -78 8 -122 15 -145 21 -8 2 -31
7 -50 10 -38 6 -245 59 -270 69 -20 8 -24 -59 -24 -459 -1 -348 10 -565 39
-800 2 -16 7 -57 10 -90 3 -33 8 -67 10 -75 2 -8 6 -35 9 -60 3 -25 12 -85 21
-135 9 -49 18 -102 21 -117 12 -71 45 -231 48 -237 2 -3 7 -23 10 -44 3 -22
20 -94 37 -160 265 -1054 741 -1993 1427 -2812 285 -340 632 -679 1007 -983
116 -94 88 -97 250 29 339 264 647 556 950 900 17 18 72 84 122 144 89 108 91
111 97 175 4 35 14 86 23 112 17 54 20 48 -86 164 -86 94 -198 219 -232 259
-19 22 -37 42 -40 45 -3 3 -70 77 -149 165 -78 88 -159 178 -179 200 -20 22
-113 126 -206 230 -220 246 -236 264 -262 290 -21 22 -23 22 -75 8 -134 -35
-329 -8 -478 67 -197 99 -352 305 -388 515 -9 52 -9 218 0 270 28 165 137 338
282 449 48 36 152 93 185 102 9 2 41 11 71 20 37 11 95 17 180 18 134 1 189
-10 303 -60 l59 -26 26 24 c15 14 45 40 66 59 22 19 56 50 77 69 20 19 59 54
86 76 26 23 60 52 74 65 50 46 106 96 289 258 172 153 332 296 370 331 9 8 50
44 91 80 41 36 83 74 95 85 11 11 49 45 83 75 74 65 83 73 192 170 151 134
139 117 123 186 -9 38 -13 100 -10 175 l3 116 -99 12 c-98 12 -206 32 -283 53
-22 5 -50 12 -62 14 -42 8 -239 76 -333 116 -315 133 -602 329 -848 578 -61
61 -182 202 -227 263 -11 15 -24 27 -30 26 -5 0 -41 -42 -78 -93z"/>
<path d="M5348 6335 c-2 -2 -28 -5 -58 -9 -213 -21 -415 -212 -470 -445 -19
-82 -9 -222 23 -300 14 -35 23 -68 20 -75 -2 -6 -28 -31 -56 -55 -29 -24 -88
-77 -132 -116 -44 -40 -165 -148 -270 -240 -104 -92 -208 -184 -230 -204 -22
-20 -96 -86 -165 -146 -68 -61 -131 -117 -140 -125 -20 -18 -57 -52 -175 -155
-49 -44 -92 -82 -95 -85 -13 -13 -160 -144 -355 -315 -38 -33 -76 -67 -85 -75
-9 -8 -28 -26 -43 -39 l-26 -24 -32 27 c-85 72 -222 116 -347 111 -117 -4
-144 -10 -237 -55 -301 -144 -408 -513 -230 -795 46 -73 144 -167 210 -201
139 -72 312 -79 475 -19 l45 16 30 -34 c55 -63 170 -190 195 -216 14 -15 52
-58 85 -96 33 -38 69 -79 80 -91 19 -20 87 -97 205 -229 50 -56 136 -152 255
-285 28 -30 77 -86 110 -124 33 -38 71 -81 85 -96 51 -55 97 -107 165 -185 39
-44 72 -82 76 -85 3 -3 18 -22 33 -43 25 -32 27 -40 17 -65 -16 -40 -33 -130
-35 -189 -9 -260 167 -496 420 -566 72 -20 207 -21 279 -2 102 26 199 81 262
149 143 155 186 384 108 578 -118 292 -464 434 -749 305 l-48 -21 -25 29 c-14
17 -37 44 -52 60 -15 17 -61 68 -102 115 -68 78 -118 136 -144 164 -9 10 -246
280 -330 376 -16 19 -48 55 -71 80 -22 25 -123 140 -224 255 -101 116 -191
217 -199 226 -9 8 -36 40 -61 69 -25 29 -52 61 -60 69 -8 9 -28 30 -43 47
l-29 32 20 39 c47 92 66 224 48 333 l-7 45 88 77 c48 42 97 84 108 95 11 10
53 47 94 83 41 36 82 72 91 80 9 8 49 44 90 80 40 36 78 70 84 75 6 6 74 66
151 134 77 68 156 138 175 155 19 17 73 65 120 106 47 41 103 91 125 111 22
20 162 144 310 275 245 217 305 269 339 299 7 6 24 21 39 34 18 17 30 21 39
14 7 -5 35 -18 62 -28 129 -47 307 -39 431 20 206 99 333 310 320 530 -2 39
-6 79 -8 90 -60 248 -277 432 -529 449 -26 1 -49 2 -50 1z m113 -376 c119 -52
165 -184 106 -311 -52 -115 -181 -162 -300 -110 -170 75 -191 306 -37 408 70
46 144 50 231 13z m-2579 -2291 c20 -16 49 -54 64 -84 23 -48 26 -63 21 -115
-8 -74 -25 -107 -79 -153 -89 -76 -212 -79 -300 -6 -151 125 -78 380 117 410
53 8 130 -14 177 -52z m2053 -2236 c105 -53 153 -165 120 -276 -64 -219 -371
-223 -445 -6 -39 116 9 238 115 293 43 22 158 16 210 -11z"/>
<path d="M5119 5057 c-13 -12 -60 -53 -104 -92 -44 -38 -82 -72 -85 -75 -3 -3
-66 -59 -140 -124 -74 -66 -142 -127 -151 -135 -9 -9 -45 -41 -80 -71 -35 -30
-84 -74 -109 -96 -25 -23 -70 -63 -100 -90 -31 -27 -92 -81 -135 -120 -44 -39
-226 -201 -405 -359 -179 -158 -330 -293 -336 -299 -7 -6 -14 -56 -17 -111 -6
-105 -9 -127 -28 -182 -10 -31 -8 -36 23 -71 18 -20 125 -140 238 -267 112
-126 209 -235 215 -241 11 -12 130 -146 156 -176 26 -29 141 -158 169 -188 28
-31 146 -162 173 -194 10 -12 51 -56 90 -100 39 -43 77 -85 83 -94 8 -12 25
10 86 114 139 237 266 483 359 698 22 50 44 100 49 111 102 218 313 875 364
1135 2 14 16 79 30 145 26 125 31 154 41 220 4 22 8 47 10 55 2 8 7 38 11 65
3 28 8 58 10 68 2 10 6 45 9 78 4 33 8 68 10 77 3 16 7 58 21 202 13 131 15
121 -27 115 -20 -3 -54 -8 -75 -11 -87 -13 -270 2 -314 26 -12 6 -24 2 -41
-13z"/>
</g>
</svg>
