<svg id="Layer_1" data-name="Layer 1" xmlns="http://www.w3.org/2000/svg" viewBox="0 0 1279.03 251.16"><defs><style>.cls-1,.cls-4{fill:#231f20;}.cls-2{fill:#f57e23;}.cls-3{fill:#0061a8;}.cls-4{font-size:36px;font-family:BerninaSans, Bernina Sans;}.cls-5{letter-spacing:0em;}.cls-6{letter-spacing:-0.02em;}.cls-7{letter-spacing:0em;}.cls-8{letter-spacing:-0.01em;}.cls-9{letter-spacing:0em;}.cls-10{letter-spacing:-0.02em;}.cls-11{letter-spacing:-0.01em;}.cls-12{letter-spacing:-0.02em;}.cls-13{letter-spacing:-0.02em;}.cls-14{letter-spacing:-0.01em;}.cls-15{letter-spacing:-0.02em;}.cls-16{letter-spacing:-0.01em;}.cls-17{letter-spacing:-0.01em;}</style></defs><path d="M157.46,75.87a22,22,0,0,0-8.07-11.68,22.36,22.36,0,0,0-13.26-4.38,22.66,22.66,0,0,0-6,.82,22.11,22.11,0,0,0-10.91,7c-.3.34-.59.69-.85,1.05a21.74,21.74,0,0,0-3.7,7.65h0v0h0a21.44,21.44,0,0,0-.71,5.5,21.67,21.67,0,0,0,2.58,10.3l-.28.25-70,62c-.45-.4-.92-.78-1.4-1.14a22.33,22.33,0,0,0-19.28-3.56A22,22,0,0,0,9.36,170.87a21.86,21.86,0,0,0,.83,6h0a22,22,0,0,0,8.08,11.67c.37.27.74.53,1.13.78.11.07.21.15.32.21a22.27,22.27,0,0,0,11.81,3.4,22.74,22.74,0,0,0,10.14-2.43l.29.33h0l3.44,3.88,47.53,53.25.2.23.39.41v0L95,250.24l.12.13c0,.09-.09.17-.12.26l0,.05a21.13,21.13,0,0,0-1.74,4.71,0,0,0,0,0,0,0,.28.28,0,0,0,0,.13c-.15.65-.26,1.3-.35,2a.17.17,0,0,1,0,.07.22.22,0,0,1,0,.08q-.09.76-.12,1.53c0,.36,0,.71,0,1.07a21.47,21.47,0,0,0,.82,6,21.74,21.74,0,0,0,2.33,5.35c.25.43.52.85.8,1.26a22.28,22.28,0,0,0,33,3.86l.31-.29a21.41,21.41,0,0,0,2.31-2.64,22,22,0,0,0-23.57-34.36,21.23,21.23,0,0,0-4.9,2.05L101,238.28l-.33-.36-.41-.46L51.11,182l0,0-.26-.29a21.82,21.82,0,0,0,2.84-10.75,21.25,21.25,0,0,0-.72-5.5l72.56-64.22a22.31,22.31,0,0,0,15.91,2h0c.22,0,.43-.1.65-.16h0a21.82,21.82,0,0,0,2.72-.95,23.63,23.63,0,0,0,3-1.56,22.29,22.29,0,0,0,6-5.48,21.85,21.85,0,0,0,4.43-13.17A21.55,21.55,0,0,0,157.46,75.87Zm-118.08,101a9.31,9.31,0,0,1-13,1.87A9.24,9.24,0,0,1,23,173.81a8.92,8.92,0,0,1-.35-2.53,9.37,9.37,0,0,1,1.85-5.56,9.33,9.33,0,0,1,16.77,5.58A9.39,9.39,0,0,1,39.38,176.87Zm66,82.94a9.37,9.37,0,0,1,1.81-4.69,9.25,9.25,0,0,1,4.93-3.39l.56-.14a10.29,10.29,0,0,1,2-.2,9.32,9.32,0,0,1,9.3,9.32,9.37,9.37,0,0,1-1.85,5.56,9.32,9.32,0,0,1-16.42-3.06,9.63,9.63,0,0,1-.35-2.52A6.4,6.4,0,0,1,105.42,259.81Zm37.75-172a8.59,8.59,0,0,1-.93,1.07,8,8,0,0,1-.69.62,9.28,9.28,0,0,1-3.31,1.7,9.61,9.61,0,0,1-2.52.34,9.3,9.3,0,0,1-7.44-14.88,10.51,10.51,0,0,1,.87-1h0l.08-.09a9.38,9.38,0,0,1,4-2.28,8.92,8.92,0,0,1,2.53-.35,9.24,9.24,0,0,1,3.82.83l.23.11a6.61,6.61,0,0,1,1.06.61,4.63,4.63,0,0,1,.46.31l.27.22a9.05,9.05,0,0,1,3.1,4.71,8.85,8.85,0,0,1,.35,2.52A9.26,9.26,0,0,1,143.17,87.81Z" transform="translate(176.65 -53.97)"/><polygon class="cls-1" points="0.2 141.33 0 141.12 0 141.1 0.2 141.33"/><path class="cls-2" d="M143.17,87.81a8.59,8.59,0,0,1-.93,1.07,8,8,0,0,1-.69.62,9.28,9.28,0,0,1-3.31,1.7,9.61,9.61,0,0,1-2.52.34,9.3,9.3,0,0,1-7.44-14.88,10.51,10.51,0,0,1,.87-1h0l.08-.09a9.38,9.38,0,0,1,4-2.28,8.92,8.92,0,0,1,2.53-.35,9.24,9.24,0,0,1,3.82.83l.23.11a6.61,6.61,0,0,1,1.06.61,4.63,4.63,0,0,1,.46.31l.27.22a9.05,9.05,0,0,1,3.1,4.71,8.85,8.85,0,0,1,.35,2.52A9.26,9.26,0,0,1,143.17,87.81Z" transform="translate(176.65 -53.97)"/><path class="cls-1" d="M215.71,56.27c4.18,0,10.66,0,15.7,3,4.75,2.88,7.35,8.07,7.35,14.48,0,7.13-3.17,12.45-8.07,15.33C225.94,91.84,220.61,92,215.57,92h-4.9v18.44H201V56.27Zm-5,28.51h5.62c2.59,0,6.05,0,8.64-1.87s3.75-5.18,3.75-8.78c0-3.89-1.3-7.06-3.75-8.79s-6.05-1.87-8.64-1.87h-5.62Z" transform="translate(176.65 -53.97)"/><path class="cls-1" d="M269.64,79.31a21.64,21.64,0,0,0-4.17-.43c-8.5,0-8.5,6.26-8.5,9.36v22.18h-9.51V70.81h7.21l1.87,7.78c1.44-6.62,6.33-8.21,12.09-8.21h1Z" transform="translate(176.65 -53.97)"/><path class="cls-1" d="M287.5,59.58A5.69,5.69,0,1,1,281.81,54,5.47,5.47,0,0,1,287.5,59.58Zm-1,11.23v39.61h-9.36V70.81Z" transform="translate(176.65 -53.97)"/><path class="cls-1" d="M305.71,70.81l1.73,6.77c1.3-4.6,4.9-7.63,11.74-7.63,6.12,0,9.57,2.45,11.45,5.19,2.3,3.31,2.3,7.2,2.3,12v23.33h-9.5V86.94c0-2.3,0-4.6-1.3-6.48s-3.17-2.88-6.26-2.88c-7.13,0-8,5.48-8,8.64v24.2h-9.5V70.81Z" transform="translate(176.65 -53.97)"/><path class="cls-1" d="M370.51,109.84a29.7,29.7,0,0,1-8.57,1.15c-13.17,0-19.94-7.63-19.94-20.3s6.77-20.45,19.87-20.45a31.23,31.23,0,0,1,8.64,1.15V79h-.57a20.06,20.06,0,0,0-7.42-1.58c-7,0-10.44,4.9-10.44,13.1s3.46,13.25,10.37,13.25a21.14,21.14,0,0,0,7.49-1.58h.57Z" transform="translate(176.65 -53.97)"/><path class="cls-1" d="M409.54,109.27A45.6,45.6,0,0,1,397,111c-7.63,0-12.1-2-15.12-4.89-3.6-3.46-5.33-8.64-5.33-15.2,0-12.88,6.62-21.09,18.43-21.09,6.48,0,11.38,2.45,14.12,6.91s2.73,10.37,2.73,16.56H386.35c0,6.77,3.89,10.8,11.38,10.8A37.21,37.21,0,0,0,409,101.92h.58ZM402.19,86.8c0-6.62-2-10.37-7.49-10.37s-7.77,4-8.35,10.37Z" transform="translate(176.65 -53.97)"/><path class="cls-1" d="M444.38,110.13a29,29,0,0,1-7.2.86c-5.47,0-9.36-1.44-11.37-4.46-1.73-2.66-1.73-6-1.73-10.22v-18h-7.2V71.39h7.2V61.17l9.36-2.74v13h10.94V78.3H433.44V96.16c0,2.59,0,4.47.86,5.91s2.45,1.87,4.25,1.87a15.49,15.49,0,0,0,5.26-1h.57Z" transform="translate(176.65 -53.97)"/><path class="cls-1" d="M469.87,111.43c-12.17,0-19.3-7.06-19.3-20.74s7-20.88,19.45-20.88c12.16,0,19.29,7,19.29,20.73S482.33,111.43,469.87,111.43Zm9.36-20.81c0-8.93-3-14-9.29-14-6.62,0-9.28,5.54-9.28,14,0,8.93,2.95,14,9.28,14C476.57,104.66,479.23,99.11,479.23,90.62Z" transform="translate(176.65 -53.97)"/><path class="cls-1" d="M506.16,70.81l1.73,6.77C509.18,73,512.78,70,519.62,70c6.12,0,9.58,2.45,11.45,5.19,2.31,3.31,2.31,7.2,2.31,12v23.33h-9.51V86.94c0-2.3,0-4.6-1.29-6.48s-3.17-2.88-6.27-2.88c-7.13,0-8,5.48-8,8.64v24.2h-9.51V70.81Z" transform="translate(176.65 -53.97)"/><path class="cls-3" d="M580.46,56.27c5.33,0,12.46,0,18.72,3.6,6.48,3.74,11.23,11.16,11.23,23.47,0,12-4.46,19.59-11.52,23.55-6.33,3.53-13.61,3.53-18.43,3.53H565.34V56.27ZM575,103.22h6c4,0,7.77-.07,11.52-2.16,5.61-3.17,7.63-9.36,7.63-17.72,0-8.13-1.94-14.47-7.78-17.71-3.89-2.16-8.06-2.16-11.37-2.16h-6Z" transform="translate(176.65 -53.97)"/><path class="cls-3" d="M620.78,72a41.5,41.5,0,0,1,12.67-1.73c5.91,0,11.23,1,14,4.9,2.16,3,2.16,7,2.16,10.65V99.33c0,1.66,0,4.61,3.38,4.61a8.59,8.59,0,0,0,2.09-.29v6.62a21.48,21.48,0,0,1-5,.58c-5,0-8.21-1.73-8.78-7.06-1.44,4.61-5.91,7.2-11.67,7.2-7.77,0-12.67-4.75-12.67-11.88,0-8.57,7.06-12.74,19.59-12.74,2.3,0,3.74.14,3.74.14,0-3.31,0-4.89-1.15-6.62s-3.1-2.59-7-2.59a32.58,32.58,0,0,0-10.73,2h-.57Zm11.45,32a7.35,7.35,0,0,0,6.69-3.75,14.73,14.73,0,0,0,1.3-6.91v-.86h-2.16c-4.18,0-11.38,0-11.38,6.19C626.68,101.78,628.55,103.94,632.23,103.94Z" transform="translate(176.65 -53.97)"/><path class="cls-3" d="M685.29,110.13a29,29,0,0,1-7.2.86c-5.47,0-9.36-1.44-11.38-4.46-1.72-2.66-1.72-6-1.72-10.22v-18h-7.2V71.39H665V61.17l9.36-2.74v13h10.94V78.3H674.35V96.16c0,2.59,0,4.47.86,5.91s2.45,1.87,4.25,1.87a15.49,15.49,0,0,0,5.26-1h.57Z" transform="translate(176.65 -53.97)"/><path class="cls-3" d="M695.73,72a41.5,41.5,0,0,1,12.67-1.73c5.91,0,11.23,1,14,4.9,2.16,3,2.16,7,2.16,10.65V99.33c0,1.66,0,4.61,3.39,4.61a8.46,8.46,0,0,0,2.08-.29v6.62a21.48,21.48,0,0,1-5,.58c-5,0-8.21-1.73-8.78-7.06-1.44,4.61-5.91,7.2-11.67,7.2-7.77,0-12.67-4.75-12.67-11.88,0-8.57,7.06-12.74,19.59-12.74,2.3,0,3.74.14,3.74.14,0-3.31,0-4.89-1.15-6.62s-3.1-2.59-7-2.59a32.58,32.58,0,0,0-10.73,2h-.57Zm11.45,32a7.35,7.35,0,0,0,6.69-3.75,14.73,14.73,0,0,0,1.3-6.91v-.86H713c-4.18,0-11.38,0-11.38,6.19C701.63,101.78,703.5,103.94,707.18,103.94Z" transform="translate(176.65 -53.97)"/><path class="cls-3" d="M793.65,109.27A38.7,38.7,0,0,1,782,111c-18.44,0-26.36-12.52-26.36-27.65S763.55,55.69,782,55.69a38.5,38.5,0,0,1,11.66,1.73v7.49h-.57a29,29,0,0,0-10.3-2c-11.88,0-16.92,9.08-16.92,20.17s5.11,20.73,17.06,20.73a28.86,28.86,0,0,0,10.16-2h.57Z" transform="translate(176.65 -53.97)"/><path class="cls-3" d="M818.49,111.43c-12.17,0-19.3-7.06-19.3-20.74s7-20.88,19.44-20.88c12.17,0,19.3,7,19.3,20.73S831,111.43,818.49,111.43Zm9.36-20.81c0-8.93-3-14-9.29-14-6.62,0-9.29,5.54-9.29,14,0,8.93,3,14,9.29,14C825.19,104.66,827.85,99.11,827.85,90.62Z" transform="translate(176.65 -53.97)"/><path class="cls-3" d="M854.77,70.81l1.73,6.77C857.66,73.12,861,70,868,70s10.3,3,12,7.92c1.87-5.33,5.47-7.92,11.52-7.92s9.5,2.74,11.09,5.19c2.16,3.31,2.16,7.2,2.16,12v23.33h-9.51V86.94c0-2.3,0-4.6-1.15-6.48-1-1.58-2.74-2.88-5.9-2.88-6.48,0-7.35,5.48-7.35,8.64v24.2h-9.5V86.94c0-2.3,0-4.6-1.16-6.48-1-1.58-2.73-2.88-5.9-2.88-6.48,0-7.35,5.48-7.35,8.64v24.2h-9.5V70.81Z" transform="translate(176.65 -53.97)"/><path class="cls-3" d="M923.46,70.81l1.73,6.77c1.15-4.46,4.46-7.63,11.45-7.63s10.3,3,12,7.92c1.88-5.33,5.48-7.92,11.53-7.92s9.5,2.74,11.08,5.19c2.16,3.31,2.16,7.2,2.16,12v23.33h-9.5V86.94c0-2.3,0-4.6-1.15-6.48-1-1.58-2.74-2.88-5.91-2.88-6.48,0-7.34,5.48-7.34,8.64v24.2H940V86.94c0-2.3,0-4.6-1.15-6.48-1-1.58-2.74-2.88-5.9-2.88-6.48,0-7.35,5.48-7.35,8.64v24.2h-9.5V70.81Z" transform="translate(176.65 -53.97)"/><path class="cls-3" d="M1001.8,111.43c-12.17,0-19.3-7.06-19.3-20.74s7-20.88,19.44-20.88c12.17,0,19.3,7,19.3,20.73S1014.26,111.43,1001.8,111.43Zm9.36-20.81c0-8.93-2.95-14-9.29-14-6.62,0-9.29,5.54-9.29,14,0,8.93,2.95,14,9.29,14C1008.5,104.66,1011.16,99.11,1011.16,90.62Z" transform="translate(176.65 -53.97)"/><path class="cls-3" d="M1038.08,70.81l1.73,6.77c1.3-4.6,4.9-7.63,11.74-7.63,6.12,0,9.58,2.45,11.45,5.19,2.3,3.31,2.3,7.2,2.3,12v23.33h-9.5V86.94c0-2.3,0-4.6-1.3-6.48s-3.17-2.88-6.26-2.88c-7.13,0-8,5.48-8,8.64v24.2h-9.5V70.81Z" transform="translate(176.65 -53.97)"/><path class="cls-3" d="M1100.51,79.31h-.58a30.39,30.39,0,0,0-9.5-2c-4,0-5.91,1.58-5.91,3.6,0,6.12,17.86,4.32,17.86,18,0,8.42-6.7,12.09-16.2,12.09a30.53,30.53,0,0,1-11.16-1.87v-7.63h.57s6.05,2.45,11.09,2.45c4.32,0,6.2-1.73,6.2-4,0-7.13-17.86-5-17.86-17.93,0-7.2,5.62-11.74,15.62-11.74a33.94,33.94,0,0,1,9.87,1.44Z" transform="translate(176.65 -53.97)"/><path class="cls-1" d="M216.15,132.27c5.32,0,12.45,0,18.72,3.6,6.48,3.74,11.23,11.16,11.23,23.47,0,12-4.46,19.59-11.52,23.55-6.34,3.53-13.61,3.53-18.43,3.53H201V132.27Zm-5.48,46.95h6.05c4,0,7.78-.07,11.52-2.16,5.62-3.17,7.64-9.36,7.64-17.72,0-8.13-1.95-14.47-7.78-17.71-3.89-2.16-8.07-2.16-11.38-2.16h-6.05Z" transform="translate(176.65 -53.97)"/><path class="cls-1" d="M266.33,135.58a5.69,5.69,0,1,1-5.69-5.61A5.47,5.47,0,0,1,266.33,135.58Zm-1,11.23v39.61H256V146.81Z" transform="translate(176.65 -53.97)"/><path class="cls-1" d="M301,155.31h-.57a30.41,30.41,0,0,0-9.51-2c-4,0-5.9,1.58-5.9,3.6,0,6.12,17.86,4.32,17.86,18,0,8.42-6.7,12.09-16.21,12.09a30.53,30.53,0,0,1-11.16-1.87v-7.63h.58s6.05,2.45,11.09,2.45c4.32,0,6.19-1.73,6.19-4,0-7.13-17.86-5-17.86-17.93,0-7.2,5.62-11.74,15.63-11.74a33.83,33.83,0,0,1,9.86,1.44Z" transform="translate(176.65 -53.97)"/><path class="cls-1" d="M338.4,185.84a29.7,29.7,0,0,1-8.57,1.15c-13.17,0-19.94-7.63-19.94-20.3s6.77-20.45,19.87-20.45a31.23,31.23,0,0,1,8.64,1.15V155h-.57a20.06,20.06,0,0,0-7.42-1.58c-7,0-10.44,4.9-10.44,13.1s3.45,13.25,10.37,13.25a21.21,21.21,0,0,0,7.49-1.58h.57Z" transform="translate(176.65 -53.97)"/><path class="cls-1" d="M363.74,187.43c-12.16,0-19.29-7.06-19.29-20.74s7-20.88,19.44-20.88c12.17,0,19.3,7.05,19.3,20.73S376.2,187.43,363.74,187.43Zm9.37-20.81c0-8.93-3-14-9.29-14-6.63,0-9.29,5.54-9.29,14,0,8.93,3,14,9.29,14C370.44,180.66,373.11,175.11,373.11,166.62Z" transform="translate(176.65 -53.97)"/><path class="cls-1" d="M398.88,146.81l9.79,28.95,10.08-28.95h8.64l-15,39.61h-9.36l-14.84-39.61Z" transform="translate(176.65 -53.97)"/><path class="cls-1" d="M465.41,185.27A45.6,45.6,0,0,1,452.88,187c-7.63,0-12.1-2-15.12-4.89-3.6-3.46-5.33-8.64-5.33-15.2,0-12.88,6.62-21.09,18.43-21.09,6.48,0,11.38,2.45,14.12,6.91s2.73,10.37,2.73,16.56H442.22c0,6.77,3.89,10.8,11.38,10.8a37.21,37.21,0,0,0,11.23-2.16h.58Zm-7.35-22.47c0-6.62-2-10.37-7.48-10.37s-7.78,4-8.36,10.37Z" transform="translate(176.65 -53.97)"/><path class="cls-1" d="M499.68,155.31a21.67,21.67,0,0,0-4.18-.43c-8.49,0-8.49,6.26-8.49,9.36v22.18H477.5V146.81h7.2l1.88,7.78c1.43-6.62,6.33-8.21,12.09-8.21h1Z" transform="translate(176.65 -53.97)"/><path class="cls-1" d="M528.05,185.55c-3,8.07-6,15.27-16.92,15.27a22.33,22.33,0,0,1-5.26-.58v-7.49h.58a17.2,17.2,0,0,0,4.89,1c4,0,6.05-3.45,8.07-8.64l-15.84-38.31h10.65l10.08,27.37,9.8-27.37h8.64Z" transform="translate(176.65 -53.97)"/><text class="cls-4" transform="translate(375.68 197.32)">A <tspan class="cls-5" x="34.13" y="0">s</tspan><tspan x="50.79" y="0">ervi</tspan><tspan class="cls-6" x="116.31" y="0">c</tspan><tspan class="cls-7" x="133.23" y="0">e </tspan><tspan class="cls-8" x="163.8" y="0">o</tspan><tspan x="185.61" y="0">f </tspan><tspan class="cls-9" x="211.1" y="0">P</tspan><tspan x="233.46" y="0">rin</tspan><tspan class="cls-10" x="279.25" y="0">c</tspan><tspan class="cls-11" x="296.17" y="0">e</tspan><tspan class="cls-12" x="316.15" y="0">t</tspan><tspan x="331.16" y="0">on </tspan><tspan class="cls-12" x="385.45" y="0">R</tspan><tspan class="cls-5" x="408.56" y="0">es</tspan><tspan class="cls-7" x="445.42" y="0">ea</tspan><tspan class="cls-13" x="486.32" y="0">r</tspan><tspan x="499.53" y="0">ch </tspan><tspan class="cls-5" x="549.21" y="0">D</tspan><tspan class="cls-11" x="576.21" y="0">a</tspan><tspan x="596.41" y="0">ta Servi</tspan><tspan class="cls-10" x="728.81" y="0">c</tspan><tspan class="cls-7" x="745.73" y="0">e</tspan><tspan x="0" y="42">and </tspan><tspan class="cls-5" x="75.56" y="42">P</tspan><tspan x="97.92" y="42">rin</tspan><tspan class="cls-10" x="143.71" y="42">c</tspan><tspan class="cls-14" x="160.63" y="42">e</tspan><tspan class="cls-12" x="180.61" y="42">t</tspan><tspan x="195.62" y="42">on Uni</tspan><tspan class="cls-15" x="308.91" y="42">v</tspan><tspan x="329.76" y="42">e</tspan><tspan class="cls-16" x="350.1" y="42">r</tspan><tspan x="363.78" y="42">sity Lib</tspan><tspan class="cls-17" x="489.05" y="42">r</tspan><tspan x="502.66" y="42">ary</tspan></text></svg>