<svg id="Layer_1" data-name="Layer 1" xmlns="http://www.w3.org/2000/svg" viewBox="0 0 249.23 72.44"><defs><style>.cls-2{fill:#0b62a9}.cls-3{fill:#231f20}</style></defs><path d="M30.19 43.31L42.45 57a7.39 7.39 0 00-.45 2.32 70.42 70.42 0 01-13.54 13.12A72.63 72.63 0 018.55 49 73.57 73.57 0 01.16 9.74 25.44 25.44 0 007.7 11H8a24.65 24.65 0 005.14-.54A25.73 25.73 0 0028.52 0a27.3 27.3 0 0013.24 9.79 26.66 26.66 0 006.3 1.31 7.26 7.26 0 00-.16 1.54 7.92 7.92 0 00.28 2 .25.25 0 000 .15L31.77 29.42a7.71 7.71 0 00-5.77-.68 7.57 7.57 0 00-4 2.75 7.53 7.53 0 00-1.23 6.6 7.65 7.65 0 007.33 5.51 7.91 7.91 0 002-.28h.08" fill="#f57e21"/><path class="cls-2" d="M57.81 20a70.33 70.33 0 01-8.54 29.09c-.6 1.07-1.21 2.11-1.83 3.11l-.06-.13-.1-.12-11.9-13.34a7.29 7.29 0 00.43-2.49 5 5 0 000-.77l17.37-15.43a7.73 7.73 0 002.43.4 7.28 7.28 0 001.32-.12h.18l.56-.13h.14"/><path class="cls-3" d="M61.22 11.15a5.74 5.74 0 00-2.12-3.06 5.84 5.84 0 00-5.06-1A5.81 5.81 0 0051.17 9a3 3 0 00-.22.28 5.7 5.7 0 00-1 2 5.91 5.91 0 000 3 6.63 6.63 0 00.46 1.14l-.07.07L32 31.78l-.36-.3a5.91 5.91 0 00-3.49-1.15 5.8 5.8 0 00-5.83 5.77 6 6 0 00.22 1.57 5.8 5.8 0 002.12 3.06L25 41a5.79 5.79 0 004.68.68 6.82 6.82 0 001.09-.42l.07.08.9 1 12.49 14v.06l.1.11.39.44V57a5.67 5.67 0 00-.37 1.34 3.06 3.06 0 01-.1.51v.69a5.87 5.87 0 00.21 1.56 5.55 5.55 0 00.62 1.41 3 3 0 00.21.33 6 6 0 001.29 1.33 5.94 5.94 0 007.31-.22l.08-.08a4.43 4.43 0 00.61-.69 5.75 5.75 0 001.15-3.46 5.87 5.87 0 00-.21-1.56 5.89 5.89 0 00-7.17-4 5.57 5.57 0 00-1.29.53l-.71-.83-.09-.1-.1-.12L33.28 39l-.06-.1a5.68 5.68 0 00.78-2.8 5.45 5.45 0 00-.19-1.45L52.83 17.8a5.88 5.88 0 002.78.7 6 6 0 001.4-.17h.18a6 6 0 00.71-.25 7.37 7.37 0 00.79-.41 5.83 5.83 0 001.57-1.44 5.72 5.72 0 001-5m-31 26.54a2.49 2.49 0 01-1.3.88 2.07 2.07 0 01-.66.1 2.52 2.52 0 01-1.47-.49A2.4 2.4 0 0126 37a2.5 2.5 0 011.63-3 2.5 2.5 0 01.66-.09 2.46 2.46 0 012.35 1.78 2.11 2.11 0 01.1.66 2.45 2.45 0 01-.49 1.47m17.3 21.65a2.61 2.61 0 01.45-1.23 2.51 2.51 0 011.3-.89h.7a2.4 2.4 0 011.46.49 2.36 2.36 0 01.89 1.3 1.85 1.85 0 01.09.66 2.46 2.46 0 01-.48 1.46 2.41 2.41 0 01-1.3.89 2.47 2.47 0 01-3.11-2.35v-.24m9.91-45.18a1.61 1.61 0 01-.24.28l-.18.16a2.33 2.33 0 01-.87.45 2.44 2.44 0 01-.66.09 2.52 2.52 0 01-1.51-.49 2.37 2.37 0 01-.88-1.29 2.45 2.45 0 01-.1-.66 2.59 2.59 0 01.49-1.47 2.85 2.85 0 01.23-.26 2.62 2.62 0 011-.6 2.4 2.4 0 011.67.13h.06a1.75 1.75 0 01.27.16.36.36 0 01.12.08L57 11a2.31 2.31 0 01.81 1.24 1.85 1.85 0 01.09.66 2.4 2.4 0 01-.49 1.46M74.23 21.38a8.19 8.19 0 014.16.8 4.28 4.28 0 012 3.84 4.48 4.48 0 01-2.13 4.06 7.78 7.78 0 01-4 .77H73v4.88h-2.62V21.38zm-1.34 7.54h1.49a3.81 3.81 0 002.29-.5 2.75 2.75 0 001-2.33 2.7 2.7 0 00-1-2.32 3.81 3.81 0 00-2.29-.5h-1.49zM88.56 27.49a5.17 5.17 0 00-1.11-.12c-2.25 0-2.25 1.66-2.25 2.48v5.88h-2.52V25.24h1.91l.49 2.06c.39-1.76 1.68-2.18 3.21-2.18h.27zM93.08 23.63h-2.56v-2.25h2.56zm0 12.1H90.6V25.24h2.48zM98.15 25.24l.46 1.76c.35-1.22 1.3-2 3.11-2a3.44 3.44 0 013 1.37 5.3 5.3 0 01.61 3.17v6.18h-2.52v-6.21a2.85 2.85 0 00-.35-1.72 1.83 1.83 0 00-1.66-.79 2 2 0 00-2.13 1.86 3 3 0 000 .43v6.41h-2.5V25.24zM115.38 35.58a7.91 7.91 0 01-2.27.3c-3.49 0-5.28-2-5.28-5.38s1.79-5.42 5.26-5.42a8 8 0 012.29.31v2h-.15a5.27 5.27 0 00-2-.42c-1.85 0-2.77 1.3-2.77 3.47s.92 3.51 2.75 3.51a5.47 5.47 0 002-.42h.17zM125.74 35.42a11.94 11.94 0 01-3.36.5 5.37 5.37 0 01-4-1.3 5.36 5.36 0 01-1.41-4c0-3.42 1.75-5.59 4.88-5.59a4.12 4.12 0 013.74 1.83 8.49 8.49 0 01.72 4.39h-6.75c0 1.79 1 2.86 3 2.86a9.85 9.85 0 003-.57h.15zm-1.94-6c0-1.75-.54-2.75-2-2.75s-2.06 1-2.21 2.75zM135 35.65a7.62 7.62 0 01-1.91.23 3.43 3.43 0 01-3-1.18 5 5 0 01-.45-2.71v-4.77h-1.91v-1.83h1.91v-2.71l2.48-.73v3.44H135v1.83h-2.9v4.7a3.12 3.12 0 00.24 1.6 1.18 1.18 0 001.12.49 4.08 4.08 0 001.39-.26h.16zM141.81 36c-3.23 0-5.11-1.87-5.11-5.5s1.85-5.5 5.15-5.5 5.15 1.84 5.15 5.46-1.89 5.54-5.19 5.54m2.48-5.52c0-2.36-.78-3.72-2.46-3.72s-2.45 1.47-2.45 3.72.78 3.72 2.46 3.72 2.46-1.47 2.46-3.72M151.46 25.24l.46 1.79c.34-1.22 1.3-2 3.11-2a3.41 3.41 0 013 1.37 5.14 5.14 0 01.62 3.17v6.18h-2.52v-6.24a2.85 2.85 0 00-.35-1.72 1.83 1.83 0 00-1.66-.76 2 2 0 00-2.12 1.86 3 3 0 000 .43v6.41h-2.52V25.24z"/><path class="cls-2" d="M169.74 30v5.69h-2.52V21.38H172a6.61 6.61 0 013.82.84 3.83 3.83 0 011.6 3.4 3.9 3.9 0 01-2.8 4.06l3.53 6h-2.87L172.15 30zm0-1.9H172a3.61 3.61 0 001.94-.42 2.26 2.26 0 00.88-2 2.26 2.26 0 00-.88-2 3.28 3.28 0 00-1.94-.44h-2.22zM188 35.42a12 12 0 01-3.32.46 5.46 5.46 0 01-4-1.3 5.36 5.36 0 01-1.41-4c0-3.42 1.76-5.59 4.89-5.59a4.11 4.11 0 013.73 1.83 8.4 8.4 0 01.73 4.39h-6.75c0 1.79 1 2.86 3 2.86a9.85 9.85 0 003-.57h.15zm-1.95-6c0-1.75-.53-2.75-2-2.75s-2.06 1-2.21 2.75zM197.52 27.49h-.14a7.73 7.73 0 00-2.52-.54c-1.07 0-1.56.42-1.56 1 0 1.62 4.73 1.14 4.73 4.77 0 2.23-1.78 3.2-4.3 3.2a8.08 8.08 0 01-3-.49v-2h.15a9.57 9.57 0 002.94.65c1.14 0 1.64-.46 1.64-1.07 0-1.89-4.73-1.33-4.73-4.75 0-1.9 1.49-3.11 4.14-3.11a9.16 9.16 0 012.61.38zM208.65 35.42a12.05 12.05 0 01-3.27.5 4.78 4.78 0 01-5.41-4 5.06 5.06 0 010-1.29c0-3.42 1.75-5.59 4.88-5.59a4.12 4.12 0 013.74 1.83 8.4 8.4 0 01.73 4.39h-6.76c0 1.79 1 2.86 3 2.86a9.55 9.55 0 003-.57h.16zm-2-6c0-1.75-.53-2.75-2-2.75s-2.07 1-2.22 2.75zM212.08 25.5a13.79 13.79 0 013.38-.42c1.89 0 3.18.42 3.87 1.42a5.55 5.55 0 01.61 3.2v6h-1.87l-.5-1.72c-.19 1-1.06 2-2.93 2s-3.51-1.11-3.51-3.17a2.89 2.89 0 011.37-2.59c1.26-.77 3.13-.77 5-.77a3.11 3.11 0 00-.31-1.75 2.22 2.22 0 00-2-.73 9.85 9.85 0 00-2.94.54h-.15zm3.17 8.55a2 2 0 001.9-1 4.09 4.09 0 00.31-1.83V31a7.12 7.12 0 00-3 .38 1.4 1.4 0 00-.76 1.32c0 .82.5 1.35 1.53 1.35M228.87 27.49a5.17 5.17 0 00-1.11-.12c-2.25 0-2.25 1.66-2.25 2.48v5.88H223V25.24h1.91l.5 2.06c.38-1.76 1.68-2.18 3.2-2.18h.27zM237.51 35.58a7.91 7.91 0 01-2.27.3c-3.49 0-5.28-2-5.28-5.38s1.79-5.42 5.26-5.42a8 8 0 012.29.31v2h-.13a5.27 5.27 0 00-2-.42c-1.86 0-2.77 1.3-2.77 3.47s.91 3.51 2.75 3.51a5.47 5.47 0 002-.42h.15zM242.53 20.85v6c.34-1.11 1.18-1.87 3-1.87a3.44 3.44 0 013.05 1.37 5.3 5.3 0 01.61 3.17v6.18h-2.52v-6.19a3 3 0 00-.34-1.72 1.83 1.83 0 00-1.66-.76 2 2 0 00-2.13 1.85 1.61 1.61 0 000 .44v6.41h-2.48V20.85zM74.38 41.33a9.71 9.71 0 015 1c1.72 1 3 3 3 6.22s-1.18 5.19-3 6.24a9.81 9.81 0 01-4.89.94h-4.11v-14.4zm-1.49 12.44h1.6a6 6 0 003.06-.57c1.49-.84 2-2.48 2-4.7s-.52-3.83-2.06-4.69a6 6 0 00-3-.57h-1.6zM85 45.45a13.55 13.55 0 013.38-.45c1.89 0 3.19.42 3.88 1.41a5.59 5.59 0 01.61 3.21v6H91l-.5-1.72c-.12 1-1 2-2.92 2s-3.51-1.11-3.51-3.17a2.89 2.89 0 011.38-2.6c1.26-.76 3.13-.76 5-.76a3.11 3.11 0 00-.31-1.75 2.22 2.22 0 00-2-.73 9.85 9.85 0 00-2.94.54h-.15zM88.19 54a2.08 2.08 0 001.91-1 4.13 4.13 0 00.31-1.84v-.24a6.82 6.82 0 00-3 .38 1.39 1.39 0 00-.76 1.31c0 .82.49 1.36 1.52 1.36M102.12 55.6a7.62 7.62 0 01-1.91.23 3.38 3.38 0 01-3-1.18 4.87 4.87 0 01-.46-2.71v-4.77h-1.91v-1.83h1.91v-2.71l2.48-.73v3.44h2.9v1.83h-2.9v4.75a3.09 3.09 0 00.23 1.56 1.22 1.22 0 001.13.5 4.09 4.09 0 001.39-.27h.15zM104.89 45.45a13.79 13.79 0 013.38-.42c1.88 0 3.18.42 3.87 1.41a5.59 5.59 0 01.61 3.21v6h-1.87l-.5-1.73c-.19.95-1.06 1.95-2.93 1.95s-3.51-1.11-3.51-3.17a2.88 2.88 0 011.37-2.6c1.26-.76 3.13-.76 5-.76a3.11 3.11 0 00-.31-1.75 2.22 2.22 0 00-2-.73 9.85 9.85 0 00-2.94.54h-.15zm3.17 8.55a2.06 2.06 0 001.9-1 4.13 4.13 0 00.31-1.84v-.24a6.82 6.82 0 00-3 .38 1.39 1.39 0 00-.76 1.31c0 .82.5 1.36 1.53 1.36M129.18 43.66H129a10.85 10.85 0 00-3.24-.65c-1.6 0-2.4.68-2.4 1.72 0 2.9 6.48 2.15 6.48 6.92 0 2.84-2.29 4.18-5.41 4.18a10.47 10.47 0 01-3.71-.65v-2h.16a10.91 10.91 0 003.64.84c1.66 0 2.65-.8 2.65-2 0-3.11-6.48-2.39-6.48-6.91 0-2.44 1.87-3.89 5-3.89a12.08 12.08 0 013.48.53zM140.61 55.37a12 12 0 01-3.32.46 4.78 4.78 0 01-5.41-4 5.06 5.06 0 010-1.29c0-3.42 1.75-5.59 4.88-5.59a4.1 4.1 0 013.74 1.83 8.4 8.4 0 01.73 4.39h-6.76c0 1.79 1 2.86 3 2.86a9.55 9.55 0 003-.57h.16zm-2-6c0-1.76-.53-2.75-2-2.75s-2.07 1-2.22 2.75zM149.73 47.44a5.17 5.17 0 00-1.11-.12c-2.25 0-2.25 1.66-2.25 2.48v5.88h-2.52v-10.5h1.91l.49 2.06c.39-1.75 1.68-2.17 3.21-2.17h.27zM153.64 45.18l2.59 7.67 2.67-7.67h2.29l-3.97 10.5h-2.48l-3.93-10.5h2.83zM166 43.58h-2.58v-2.25h2.55zm0 12.1h-2.47v-10.5H166zM176 55.52a7.92 7.92 0 01-2.27.31c-3.5 0-5.29-2-5.29-5.38s1.83-5.45 5.31-5.45a8 8 0 012.29.31v2h-.16a5.27 5.27 0 00-2-.42c-1.85 0-2.77 1.3-2.77 3.47s.92 3.51 2.75 3.51a5.47 5.47 0 002-.42h.14zM186.38 55.37a12 12 0 01-3.32.46 4.78 4.78 0 01-5.41-4 5.06 5.06 0 010-1.29c0-3.42 1.75-5.59 4.88-5.59a4.1 4.1 0 013.74 1.83 8.4 8.4 0 01.73 4.39h-6.76c0 1.79 1 2.86 3 2.86a9.55 9.55 0 003-.57h.15zm-1.95-6c0-1.76-.53-2.75-2-2.75s-2.06 1-2.22 2.75z"/></svg>