<svg id="Layer_1" data-name="Layer 1" xmlns="http://www.w3.org/2000/svg" viewBox="0 0 972.02 889.46"><defs><style>.cls-1{fill:#cecccb}</style></defs><path class="cls-1" d="M163.33 406.92a2.66 2.66 0 003.45 1.48 2.57 2.57 0 001.23-1l.09-.17a2.58 2.58 0 00.23-.54l159.13 41-26.72 38.09a2.11 2.11 0 00-1.83-.24 1.84 1.84 0 00-.91.7l-.08.17a1.88 1.88 0 000 1.64 2.17 2.17 0 001.07 1.1l-14.79 38.72a2.6 2.6 0 00-1.84 0 2.65 2.65 0 002 4.93l.27-.14 30.53 51.95a2.63 2.63 0 00.09 4.51l-56.41 104.29a2.65 2.65 0 10-1.42 5l-6.8 120.47a3.93 3.93 0 00-1.61.27 4 4 0 003 7.42 3.94 3.94 0 002.35-2.74l274.16 62.47a2.61 2.61 0 00.13 1.48 2.65 2.65 0 103.14-3.55l51.72-215.43L687 618a2.65 2.65 0 101.75-3.83L665.4 524l141.82-74.43a2.65 2.65 0 101.31-3.78l-.31.16-60-98.28a2.67 2.67 0 00-.76-4.77l24.65-105.3a2.61 2.61 0 001.53-.13 2.66 2.66 0 00-2-4.94 2.45 2.45 0 00-.61.36l-63.32-77.08a4.42 4.42 0 00-4.5-7.48 4.74 4.74 0 00-1.4.9L670 116.48l25.91-32.86a2.6 2.6 0 002.55.33 2.66 2.66 0 10-2-4.93 2.69 2.69 0 00-1.27 1.1L563.68 6.52a2.65 2.65 0 10-4.82-.23 2.16 2.16 0 00.17.34l-52.11 32.66-102.77-22.71a2.75 2.75 0 00-.14-1.47 2.65 2.65 0 00-4.93 2 2.61 2.61 0 001.22 1.35L341 140.05a5.22 5.22 0 00-4.16-.13 5.29 5.29 0 00-2.92 6.9l.1.22-122.3 60.38a2.65 2.65 0 10-3 3.82l-42.44 192.09a2.57 2.57 0 00-1.47.14 2.65 2.65 0 00-1.48 3.45zm193.09-156.85L377 371.63a3.92 3.92 0 00-.81.23 4.37 4.37 0 00-1.43.93L211.34 210.47a2.65 2.65 0 00.57-1zm-37.67 335.32l139-102.05c.07.07.12.15.2.22L356.32 591.17l-37.13-4.09a2.43 2.43 0 00-.17-1.18 2.49 2.49 0 00-.27-.51zm.43 1.88l37 4.07-57.93 61.35 17.7-63.23a2.63 2.63 0 001.61-.11 2.68 2.68 0 001.62-2.08zm234-4a2 2 0 00-.2-.35l41.61-21.83 12.77 7.51-6.59 27.43-47.39-11a2.69 2.69 0 00-.17-1.74zm217-347.39l-43 19-9.47-43.65L770.24 234a2.65 2.65 0 00-.03 1.9zm-69.4-81.85a2.75 2.75 0 00.2.38l-47.1 28.86-27.3-11.85 19.42-24.5 54.57 5.22a4.39 4.39 0 00.24 1.91zM494.19 290.35a2.64 2.64 0 001.49 1.48l-23.85 70.5a2.57 2.57 0 00-1.75.05l-.3.16-58.38-97 82.68 23.23a2.56 2.56 0 00.11 1.58zm-1 301.1L460.7 484.21h.16a2.74 2.74 0 00.69-.39L547.91 582a2.75 2.75 0 00-1.15 2.65zm53.58-6.6a2.54 2.54 0 00.19.59 3.17 3.17 0 00.57.82l-45 36-9.27-30.57zM595 507.7l-44.92-51.84 85.78-24.65c0 .14.09.27.14.4a5.32 5.32 0 002.14 2.56zm43.3-73.43a5.39 5.39 0 001.27.52l-23.38 97.34-21.09-24.29zm-19.96-198.19a2.8 2.8 0 00-.49-.77L666.62 189l4.66 2-122.13 140.42-.13-.1 65.39-92a2.66 2.66 0 003.93-3.2zm-69.47 95.12a3.87 3.87 0 00-1-.54l33.63-99.8a3.9 3.9 0 002.65-.07 4 4 0 002.19-5.17 3.1 3.1 0 00-.27-.51l67.91-41.61 12.5 5.42-48.7 46.26a2.66 2.66 0 00-2.85-.58 2.13 2.13 0 00-.42.23l-.16.11a2.62 2.62 0 00-.89 3.11 2.66 2.66 0 00.85 1.12zm1.47-190.51a3.92 3.92 0 001.29-1.57l23.43 10.16 7.08 73.85a3.91 3.91 0 00-.87.2l-31.72-82.19a4.32 4.32 0 00.64-.34zm-6-1.77a4 4 0 002.31 2.25L536 172.64 507.14 139l37-1.31a4.16 4.16 0 00.22 1.23zM344 144l96.09-17 4.86 14L344 144.55a3.57 3.57 0 000-.55zm101-2.81l15.54 44.66-116.75-39.33a4.88 4.88 0 00.24-1.78zM440.24 127l48.94-8.64 17.56 20.46-61.63 2.18zm66.66 12l29.1 33.85-11.67 34.48-63.53-21.41-15.57-44.75zm-36 228.5a2.5 2.5 0 001.14-.17 2.57 2.57 0 00.68-.41l29.83 34.41-34.23-7zm-2.77 26.81l-85.92-17.54a4.15 4.15 0 000-1.22l86.21-10.29a2.4 2.4 0 00.15.57 2.67 2.67 0 002.1 1.65zm167.51 36.14v.19c0 .12.06.26.09.39l-85.81 24.67-44.46-51.3 1.2-2 129 26.34a5.4 5.4 0 00-.01 1.71zm-93.47-94.08l-68.7 27.43a2.8 2.8 0 00-.68-.93L517 308.08l26 23.83a4.41 4.41 0 00-.82 4.46zm-43.52-45.28a2.65 2.65 0 00.46-2.71 2.19 2.19 0 00-.27-.5l80.64-58.42a3.72 3.72 0 00.3.37l-62.86 78zm-1.11-4.21l26.85-79.32 54.45 18.35a4 4 0 00.1 2.63 4.84 4.84 0 00.42.78l-80.63 58.42a2.55 2.55 0 00-1.18-.86zm26.91-79.5L536.09 173 580 224.12a4 4 0 00-1.05 1.61zm56.81 23.42l-33.64 99.8a4.34 4.34 0 00-4.51 1.17l-26-23.83 62.86-78a4 4 0 001.3.86zM544 338.57l-26 44.11-44.47-17a2.66 2.66 0 000-1.74l68.71-27.43a4.36 4.36 0 001.76 2.06zm-25.89 44.34l117.78 44.95c-.07.21-.14.43-.19.65l-128.94-26.32zm-12.78 21.33l-2.28-2.61 3.41.69zm-2.48-2.85l-30-34.59a2.57 2.57 0 00.63-.91l44.43 16.95-11.37 19.31zm-30.85-39l23.86-70.51a2.6 2.6 0 001.78-.05 2.68 2.68 0 00.9-.6L516.81 308l-44.17 54.8a2.51 2.51 0 00-.64-.41zm23.87-75.55l-35-100.69 63.39 21.35-26.84 79.32a2.59 2.59 0 00-1.55.02zm51-145.61a3.89 3.89 0 002.52 0l31.73 82.19a3.85 3.85 0 00-1 .62l-44-51.21zm4.85-2.29a3.89 3.89 0 00.24-1l22.23 2.13.86 9zm23.55 10.43l51.06 22.15L585 223.93a4 4 0 00-2.66-.81zm0-.22l-.87-9.08 71.37 6.83-19.3 24.47zm51.26 22.45l27.22 11.81-67.77 41.53a3.87 3.87 0 00-.81-.9l11.68-14.8.12-.15zM549.38 338l87.67 88a5.25 5.25 0 00-1.1 1.73L518.2 382.75l26-44.09a4.41 4.41 0 003.81.27 4.5 4.5 0 001.37-.93zm45.49 169.84l-23.19 39.53L462.22 483a2.63 2.63 0 00.24-2l87.4-25.12zm-133.61-28.39l44.09-74.88 44.37 51.19-87.32 25.09v-.13a2.69 2.69 0 00-1.14-1.27zm-.16-.09a2.92 2.92 0 00-.92-.3l8.13-84.53 34.45 7 2.47 2.85zM460 479a2.72 2.72 0 00-1.19.17 2.62 2.62 0 00-.55.29l-77.61-100.05a4.48 4.48 0 001.54-2.46l85.94 17.54zm-82.77-107.4l-20.61-121.47 54.52 15.31 58.48 97.19a2.63 2.63 0 00-1.17 2.44l-86.2 10.29a4.86 4.86 0 00-.26-1 4.44 4.44 0 00-4.76-2.76zm117.53-84.1l-147.9-135.31-4.14-3.78a5.07 5.07 0 001-1.72l116.88 39.38 35.09 100.82a2.72 2.72 0 00-.93.61zM343.23 142.08L427 89.58l13 37.27-96.07 17a5.65 5.65 0 00-.26-.89 4.74 4.74 0 00-.44-.88zm83.95-52.61l24.2-15.16L489 118.19l-48.86 8.62zm24.36-15.26l11.39-7.13L518.37 113l-29.12 5.14zm67 39L544.92 135a4.06 4.06 0 00-.84 2.51L507 138.8l-17.6-20.48zm.24 0l32.22-5.77-2.62 26.06a3.74 3.74 0 00-3.3 1.35zm32.34-5.71l19.58-3.5 3.45 35.9-22.15-2.16a4 4 0 00-3.44-4.22zm0-.19l5.7-56.7 8.89 2 4.92 51.28zM566 52.53l52.69 11.64 25.92 26.56-73.69 13zm53 11.72L694.82 81a2.68 2.68 0 000 .85l-50 8.83zm50.73 52.24l-23.85 30.24-71.52-6.85-3.45-36 73.83-13zm31.37 38.11a4.19 4.19 0 00.6.83l-35.12 33.35-12.46-5.4zm.73 1l.18.15-30.6 35.16-4.64-2zm-30.36 35.54l46.1 20 9.51 43.83L550.33 333a4.35 4.35 0 00-1-1.42zm74.67 151.73l-.33.09a2.64 2.64 0 00-1.63 2.27L550.75 335a4.48 4.48 0 00-.31-1.79l176.7-78zM744.7 347L685 394.47l-134.56-58a4.74 4.74 0 00.31-1.35l193.43 10.24a2.69 2.69 0 00.19 1 3 3 0 00.33.64zm-59.88 47.6l-39.88 31.71a5.29 5.29 0 00-6.05-1.59 5.1 5.1 0 00-1.71 1.11l-87.67-87.94a4.23 4.23 0 00.83-1.23zm-42.71 40.24l23.08 89-38.64 20.27-10.25-11.8 23.42-97.47a5.21 5.21 0 002.39 0zm-15.73 109.38L611.57 552l4.68-19.47zm-15 7.89l-16.73 8.78-22.78-13.4L595 508l21.09 24.35zm-.06.24l-3.86 16.08-12.65-7.43zm-58.38 30.43a3.38 3.38 0 00-1.18-1l20-34.12L594.43 561zm-1.35-1.09a3.7 3.7 0 00-2.76-.16 3.2 3.2 0 00-.74.37l-86.37-98.25a2.38 2.38 0 00.44-.51l109.46 64.41zm-1.72 5.68l-6.35 100.87-14.72 7.22a4.14 4.14 0 00-2.62-2l23.39-106.12zM526 693.42a4.05 4.05 0 00-1.83.06l-21.58-71.08 45.09-36a3.53 3.53 0 001.67.89zm-2 .11a1.67 1.67 0 00-.3.08 3.94 3.94 0 00-1.2.73l-47.86-49.58 27.84-22.23zm-49.49-48.91l-41.87-43.32a2.61 2.61 0 00.72-2.07l59.72-7.57 9.29 30.67zM429.74 597a2.64 2.64 0 00-1.63 2.08l-37.65-4.15L458.53 484a2.85 2.85 0 002 .27L493 591.48 433.35 599a2.73 2.73 0 00-.15-.56 2.67 2.67 0 00-3.46-1.44zm-39.49-2.09l-33.69-3.71 101.52-107.52.29.22zm67-114l-129.48-33.34 47.64-67.91a4.4 4.4 0 004.1.43 3.87 3.87 0 001-.57L445 462.71l.14.17 13 16.74a2.53 2.53 0 00-.91 1.3zM339.47 150.14l16.92 99.73L212 209.3a2.7 2.7 0 00-.11-1.61l-.06-.1 122.26-60.38a5.32 5.32 0 005.38 2.93zm1.9-.64L411 265.21l-54.41-15.29-16.93-99.81a4.25 4.25 0 001.08-.3 3.68 3.68 0 00.63-.31zm1.23-.95l152 139.11a2.55 2.55 0 00-.49.9l-82.88-23.28-69.7-115.87a5.25 5.25 0 001.07-.86zm59.72-129.93L427 89.4l-83.82 52.53a5.26 5.26 0 00-2-1.8l59.29-121.61a2.66 2.66 0 001.85.1zm.87-.46l48.07 56-24.14 15.13-24.62-70.72a2.58 2.58 0 00.69-.41zm.33-.31L462.78 67l-11.36 7.12-48.08-56zm103.17 21.58L463 66.84l-59.36-49.13a2.64 2.64 0 00.47-.95zm.26.06l49.73 11-5.68 56.76-32.39 5.75-55.51-46zM561 7.93l-4.3 42.36-49.52-10.94 51.95-32.56A2.63 2.63 0 00561 7.93zm.51 0l4.26 44.34-8.85-2L561.15 8zm1.62-.68l55.31 56.66-52.48-11.6-4.26-44.4a2.5 2.5 0 00.64-.16 2.79 2.79 0 00.76-.48zm132 73a2.6 2.6 0 00-.21.55L618.74 64l-55.5-56.86a2.48 2.48 0 00.34-.46zm-25.25 36.06l-24.94-25.46L694.83 82a3 3 0 00.12.43 2.75 2.75 0 00.76 1zm31.93 33a4.41 4.41 0 00-1.22 2.63l-54.45-5.21 23.76-30.13zm4 7.42l11.74 54.14L671.6 191l30.55-35.12a4.4 4.4 0 003.63.87zM771 233a2.81 2.81 0 00-.63.82L717.74 211 706 156.7a4.27 4.27 0 00.61-.18 3.87 3.87 0 001.06-.63zm-23.68 109.8a3 3 0 00-1 0l-19-87.73 43-19a2.59 2.59 0 001.68 1.43zm59.8 104.29l-121.94-52.54 59.64-47.42a2.62 2.62 0 003 .75l.31-.16 60 98.28a2.72 2.72 0 00-1.01 1.09zm-.23.75l-160.76-17.69a5.33 5.33 0 00-.36-2.44 5 5 0 00-.72-1.25l40-31.78 122 52.58a3.53 3.53 0 00-.16.58zm-141.53 75.93l-23.07-89 .56-.19a5.28 5.28 0 003.27-4.28L806.87 448a2.7 2.7 0 00.18 1.18.8.8 0 00.08.16zm22.34 90.92l-61-70.41L665.24 524l23.37 90.18-.24.06a2.68 2.68 0 00-.67.45zm-.57.64l-79.53-46.8 3.92-16.29 15-7.87 61 70.44a2.66 2.66 0 00-.39.52zm-.33.73l-85.82-20 6.58-27.37 79.44 46.8a3.57 3.57 0 00-.2.57zm-103.23 52.51l17.37-72.3 85.82 20a2.55 2.55 0 00.13 1.49l.05.1zm-.22.11l-39.66 19.46L550 587.39a3.45 3.45 0 001.38-.19 3 3 0 002-2l47.4 11zm-52 215.5l12.32-195.82 39.62-19.45-51.72 215.29zm-.26 0l-5.68-182.87a3.93 3.93 0 003.58-5.42c0-.09-.1-.16-.14-.24l14.62-7.18-12.3 195.71zm-276.72-60.5a4 4 0 00-.21-2.25.93.93 0 010-.1l267.42-122.25a4.17 4.17 0 003.65 2.23l5.68 182.86a2.93 2.93 0 00-.81.17 2.63 2.63 0 00-1.57 1.79zm-.46-2.73l220.52-176 47.86 49.58a3.88 3.88 0 00-.89 4.31c0 .06.05.1.07.15L254 821.15c0-.07 0-.15-.08-.22zm-.88-1.07l176.1-218.28a2.62 2.62 0 002.57.35 2.59 2.59 0 00.79-.5l41.81 43.31-220.48 176a4 4 0 00-.82-.9zm-.4-.32l137.72-224.45 37.74 4.16a2.69 2.69 0 00.17 1.18 2.44 2.44 0 00.74 1L252.89 819.74a2.43 2.43 0 00-.25-.2zm-1-.45l46.47-166 58.27-61.71 33.75 3.72-137.64 224.33a4.34 4.34 0 00-.83-.36zm8.48-124.29a2.62 2.62 0 00-.57-.88l38.28-40.55L251.47 819a3.82 3.82 0 00-.66-.12l6.8-120.47a2.52 2.52 0 001-.19 2.65 2.65 0 001.52-3.42zm55.63-105.4L298 653l-38.59 40.8a2.27 2.27 0 00-.4-.29l56.37-104.26a2.5 2.5 0 00.38.15zm-31-56.79a2.63 2.63 0 001.14-2.85l171.36-47.27a.64.64 0 00.05.17 2.5 2.5 0 00.3.53l-139 102.06a2.64 2.64 0 00-3.06-.83l-.27.14zm17-45.2l155.41-5.54a2.24 2.24 0 00.07.44l-171.35 47.25-.06-.19a2.63 2.63 0 00-1.43-1.46l14.75-38.72a2 2 0 001.4 0 1.78 1.78 0 001.2-1.8zm25.92-39.68l129.52 33.36a3 3 0 00-.05.6l-155.41 5.53a.17.17 0 010-.07l-.06-.19c0-.07 0-.15-.07-.23a2.11 2.11 0 00-.68-.85zM168.39 406.5a2.67 2.67 0 000-.85l205.08-29a3.57 3.57 0 00.25.93 4.36 4.36 0 001.5 1.92l-47.68 68zm-1.93-3.13l42.45-192.09a2.62 2.62 0 002.29-.67l163.47 162.32a4.4 4.4 0 00-1.18 3.57l-205.08 29a2.63 2.63 0 00-.15-.53 2.66 2.66 0 00-1.8-1.6z"/><path class="cls-1" d="M264.93 170.13a2.41 2.41 0 002.67 3.35h.17a2.61 2.61 0 00.5-.2l74.3 129.88-41.83 6.76a1.88 1.88 0 00-1-1.35 1.66 1.66 0 00-1-.15l-.16.05a1.69 1.69 0 00-1.09 1 2 2 0 000 1.4l-34.65 15a2.34 2.34 0 00-1.18-1.18 2.42 2.42 0 10-2 4.42 1.12 1.12 0 00.26.08l-14.51 52.92a2.42 2.42 0 00-2.76 1.36 2.35 2.35 0 00-.13 1.56L138.64 414.4a2.41 2.41 0 00-4.5-.25 2.4 2.4 0 00.33 2.5l-82.93 72.07a3.66 3.66 0 00-1.2-.88 3.64 3.64 0 00-3 6.65 3.57 3.57 0 003.28-.2L184 712.86a2.42 2.42 0 103.43.82l173.45-103 98.9 35.28a2.41 2.41 0 103.61-1.29l44-72.54L646 617.36a2.41 2.41 0 103.3-1.54 1.6 1.6 0 00-.31-.1l26.06-101.55a2.41 2.41 0 002.71-1.39 2.38 2.38 0 00-.08-2.13l84.37-50.79a2.39 2.39 0 001.06.92 2.42 2.42 0 002-4.42 2.32 2.32 0 00-.61-.17l10.08-90.27a4 4 0 10.55-8l1.07-41.61 37.89-4a2.41 2.41 0 004.59.65 2.42 2.42 0 00-1.22-3.2 2.46 2.46 0 00-1.53-.14l-35.47-132.53a2.39 2.39 0 001.51-1.31 2.42 2.42 0 10-4.42-2 2.13 2.13 0 00-.11.33L723 160.87l-50.41-81.49a2.28 2.28 0 00.86-1 2.41 2.41 0 10-4.41-2 2.31 2.31 0 00-.1 1.65l-117.06 38.53a4.76 4.76 0 00-2.55-2.79 4.83 4.83 0 00-6.36 2.47l-.08.21L425.84 75a2.41 2.41 0 00-4.5-1.7 2.45 2.45 0 00.11 2.18l-152.3 94.28a2.49 2.49 0 00-1-.87 2.43 2.43 0 00-3.22 1.24zm225 26.4l-66.23 90.64a4.73 4.73 0 00-.66-.38 3.94 3.94 0 00-1.52-.34l2.09-209.75a2.41 2.41 0 001-.26zM247.17 384.89L402 410.78a2.45 2.45 0 000 .27l-134.76 2-20.9-26.82a2.51 2.51 0 00.66-.87 2.21 2.21 0 00.17-.47zm-.95 1.47l20.83 26.72-76.82 1.16 52.5-28.6a2.51 2.51 0 001.1 1 2.4 2.4 0 002.39-.28zm151.22 150.2a2.42 2.42 0 00.1-.36l40.67 13.29 3.21 13.1-22.08 13.12-22.9-37.93a2.43 2.43 0 001-1.22zm364.51-79l-39.66-16 22.48-33.9 18.46 48.68a2.36 2.36 0 00-1.23 1.2zm9.33-97.27a1.86 1.86 0 00-.12.38l-48.74-12.41-9.61-25.34 28.28-3 31.25 38.93a4 4 0 00-1.06 1.42zM551.12 312a2.42 2.42 0 000 1.92L490 343.12a2.43 2.43 0 00-1.2-1.12 2.46 2.46 0 00-.29-.09l26.24-99.72 37.35 68.71a2.32 2.32 0 00-.98 1.1zM354 502.59l49.34-89.33.14.08a2.09 2.09 0 00.69.19l-9.27 118.75a2.55 2.55 0 00-2.46 1zm38.33 30.76a3.06 3.06 0 00-.26.51 2.75 2.75 0 00-.17.89l-52.05-6.55 14.07-25.46zm81-17.55l5.3-62.23 70.55 40.32-.18.35a4.8 4.8 0 00-.3 3zm75.41-18.38a4.68 4.68 0 00.46 1.16l-78.4 46.56 2.48-29.14zm116.63-138.87a2.3 2.3 0 00.2-.8l61.19 2.41 1.64 4.33L559.22 374a.76.76 0 010-.15L660.79 358a2.41 2.41 0 004.58.52zm-106.18 15.08a4.18 4.18 0 00-.32-1l86.48-41.43a3.53 3.53 0 001.74 1.69 3.61 3.61 0 004.76-1.86 4.2 4.2 0 00.17-.5l70.27 17.89 4.4 11.61-61.11-2.41a2.42 2.42 0 00-1.43-2.22 3.45 3.45 0 00-.42-.14h-.17a2.4 2.4 0 00-2.61 1.39 2.44 2.44 0 00-.18 1.27zm125.25-120a3.58 3.58 0 001.84-.16l8.25 21.74-43.69 51.53a4 4 0 00-.68-.44l33.48-72.9a3.88 3.88 0 00.63.21zm-2.64-5a3.63 3.63 0 000 2.94l-27.29 13 3.62-40.22 24.31 23.29a3.65 3.65 0 00-.64.93zM551.22 121l72.1 52-6 12-66.42-63.58a4.16 4.16 0 00.32-.42zm66 64.13l-19.28 38.51-48.47-101.12a5 5 0 001.31-1zm6.25-12.1l36.72 26.45L658 224l-40.56-38.84zM658 224.18l-3.63 40.45-29.91 14.29L598 223.87l19.31-38.59zM486 345.81a2.35 2.35 0 00.84.64 2.49 2.49 0 00.7.18L484 388l-17.18-26.78zM466.74 361l-43.12-67.21a3.64 3.64 0 00.82-.75l61.46 49.72a2.46 2.46 0 000 2.88zm82.79 132.26l-.1.13a3.37 3.37 0 00-.19.32l-70.63-40.36 5.24-61.6 2.09-.51 64.75 100.92a4.65 4.65 0 00-1.16 1.13zm2-120.74L490 345.12a2.42 2.42 0 00.18-1l63.8-6 1 32.13a4 4 0 00-3.41 2.3zm1.91-57.16a2.42 2.42 0 002.06-1.42 2.3 2.3 0 00.15-.49L645 329a3.15 3.15 0 000 .43l-90.8 8.5zm2-3.4l68.81-32.85 22.61 47.18a3.63 3.63 0 00-1.66 1.75 4.19 4.19 0 00-.24.76l-89.33-15.52a2.4 2.4 0 00-.11-1.28zm69-32.92l29.82-14.24-5.49 61.09a3.49 3.49 0 00-1.72.33zM645.28 331l-86.48 41.44a4 4 0 00-1.95-1.86 3.83 3.83 0 00-1.68-.34l-1-32.14 90.83-8.5a3.76 3.76 0 00.28 1.4zm-94 44.12L506 386.19l-17.15-39.79a2.41 2.41 0 001.11-1.12l61.54 27.42a4.08 4.08 0 00-.22 2.43zm-45.37 11.26l45.46 105.42a4.63 4.63 0 00-.54.29l-64.71-100.86zm-22 5.21l.27-3.14 1.71 2.66zm.29-3.42l3.54-41.53a2.39 2.39 0 001-.18l17.15 39.76-19.89 4.86zm5.8-44.9l61.16-29.2a2.38 2.38 0 001.17 1.13 2.33 2.33 0 001 .2L554 338l-63.81 6a2.15 2.15 0 00-.19-.73zm64.46-32.39l43.45-86.83L624.25 279l-68.8 32.86a2.27 2.27 0 00-.97-.98zm127.39-59.21a3.49 3.49 0 001.62 1.62L650 326.19a3.52 3.52 0 00-1-.25l5.5-61.19zm4.57 1.71a3.56 3.56 0 00.82-.49L700 268.75l-5.34 6.25zm8.16 22l18 47.38-60.44 6.32a3.55 3.55 0 00-1.16-2.24zm.12-.15l5.38-6.34 40.92 50.9-28.21 2.95zm17.91 47.7l9.58 25.27-70.14-17.86a3.64 3.64 0 00.07-1.09l17.07-1.78h.18zm-157.55 55.36l-1.71 113.06a4.9 4.9 0 00-1.82.38l-45.45-105.38 45.25-11.06a4 4 0 002.24 2.66 4.19 4.19 0 001.49.34zm-81.94 137.55l-40.52 10-27.48-112.36a2.37 2.37 0 001.42-1.09l71.89 41.08zm-66.31-105.23l76.87-18.79-5.23 61.47-71.83-41.05.06-.11a2.49 2.49 0 00.13-1.52zm-.05-.17a2.57 2.57 0 00-.38-.78l60.32-48.38 17.3 26.94-.3 3.43zm-.49-.92a2.5 2.5 0 00-.86-.67 2.6 2.6 0 00-.54-.17l16-114.21a4.05 4.05 0 002.58-.55l43.12 67.22zm17.55-122.24L490 196.69 514.63 242l-26.28 99.88a2.43 2.43 0 00-2.34.79l-61.46-49.72a3.64 3.64 0 00.51-.82 4 4 0 00-1.24-4.85zm129.52 23.29l-5.63-182.44-.16-5.11a4.84 4.84 0 001.76-.43l48.53 101.27-43.51 86.93a2.51 2.51 0 00-.99-.22zM552 119.34l87.48 21.33-16.09 32.13-72.08-51.92a4.44 4.44 0 00.42-.74 4.71 4.71 0 00.27-.8zm87.64 21.37l25.27 6.16-4.72 52.44-36.66-26.41zm25.44 6.2l11.89 2.9 5.23 65.35-21.85-15.74zm17.14 68.47l2.49 31.06a3.65 3.65 0 00-2.16 1.05l-24.42-23.38 2.21-24.49zm.18.13l24.12 17.38-18.66 14.83a3.42 3.42 0 00-3-1.29zM706.66 233l14.68 10.57-21.24 25.04-12.7-15.83a3.78 3.78 0 001-1.28 3.64 3.64 0 00-.41-3.64zm.15-.11l40.62-32.28 4.36 7.05-30.34 35.78zm45.07-25.08l25.87 41.78-.87 33.77-55.29-39.82zm26 42L815.13 310a2.51 2.51 0 00-.56.52l-37.52-27zM776 316.12l-34.87 3.65-40.95-51 21.27-25.09 55.39 39.9zm-4.93 44.69a4.13 4.13 0 00-.16.92L726.88 360l-4.39-11.57zm-.17 1.09v.21l-42.37 2.37-1.64-4.31zm-42.47 2.76l16.23 42.79-22.56 34L559 375.7a4 4 0 00.26-1.58zm-51.55 145.09l-.28-.16a2.38 2.38 0 00-2.51.38L557.93 377.24a3.94 3.94 0 001-1.33L722 441.63zm-3.63 1.69l-68.9-8.81L556.72 378a4 4 0 001.07-.65L674 510.08a2.13 2.13 0 00-.53.75 2.66 2.66 0 00-.22.61zm-69.09-8.84l-46-5.88a4.79 4.79 0 00-4.62-5.37l1.71-113.06a4 4 0 001.33-.23zm-53.39-2.31l-43.43 71.59-37.77-12.33 1.21-14.2 78.47-46.62a4.81 4.81 0 001.52 1.56zm-81.36 59.2l-14.48-4.72 15.67-9.32zm-14.69-4.79l-16.36-5.35-5.72-23.35 40.47-10-2.49 29.23zm-.2.11l-12.94 7.69-3.17-13zM397.59 536a3.12 3.12 0 00-.1-1.42l35-8.6 5.7 23.27zm-.15-1.58a3.35 3.35 0 00-1.65-1.9 2.8 2.8 0 00-.72-.25l9.27-118.75a2.47 2.47 0 00.61 0l27.48 112.33zm-4.8 2.49l-69.85 59.91-14.07-5a3.76 3.76 0 00-.36-3l84.11-52.13zm-84.37 51.77a3.6 3.6 0 00-1.2-1.16l32.7-59.2 52.13 6.56a3.17 3.17 0 00.48 1.66zm-1.34-1.25l-.24-.15a3.76 3.76 0 00-1.25-.31l2-62.72 32.19 4.05zm.47-63.36l1.71-54.79a2.46 2.46 0 001.82-.85l42.86 34.16-14.11 25.55zm2.69-59.42a2.42 2.42 0 00-2.4.26l-21.2-27.2 115.63-26a2.48 2.48 0 001.08 1.46l-49.33 89.31L311 468.34a2.07 2.07 0 00.27-.45 2.41 2.41 0 00-1.18-3.2zm-23.72-27.1l-19-24.34 134.63-2a3.11 3.11 0 000 .32zm116.92-28.68l-60.45-105.62 74.57-12a3.92 3.92 0 003.32 3.24l-13.32 94.92v.19l-2.68 19.1a2.44 2.44 0 00-1.44.21zM544.36 122L490 196.37l-65.25-120a2.47 2.47 0 001-1.1v-.09l117 41.43a4.82 4.82 0 001.61 5.39zm1.62.84l-31.29 118.91-24.58-45.21 54.38-74.43a5.16 5.16 0 00.88.51 5.65 5.65 0 00.63.22zm1.4.19l5.78 187.56a2.24 2.24 0 00-.91.24L514.81 242l31.33-119.09a4.39 4.39 0 001.24.09zM670.1 79.49l-30.55 61L552 119.17a4.72 4.72 0 00-.11-2.45L669 78.22a2.43 2.43 0 001.1 1.27zm.84.28l-6 66.93-25.2-6.15 30.52-61a2.25 2.25 0 00.68.22zm.41 0l5.6 69.85-11.85-2.89 6-66.95zm51.45 81l-45.67-11.14-5.61-69.9a2.43 2.43 0 00.92-.3zm.13.21l24.41 39.43-40.68 32.33-24.28-17.49-5.24-65.44zm54.89 15.2l-30.35 24.12-24.31-39.26 54.23 13.22a2.42 2.42 0 00.43 1.96zm.32.35l-26.24 30.98-4.34-7 30.37-24.13a2.08 2.08 0 00.21.19zm1.47.63l-1.85 72.07L752 207.66l26.27-31a2.8 2.8 0 00.5.31 2.51 2.51 0 00.84.23zm36.16 132.48a2.13 2.13 0 00-.49.21l-37.36-60.35 1.86-72.34a2.24 2.24 0 00.52-.06zm-39.56 6.43l.83-32.43 37.43 27a2.23 2.23 0 00-.39 1.5zM775 357.89a4 4 0 00-2.49.88l-31.18-38.85L776 316.3zm-2.28 7.34l-27.87 42-16.17-42.63 42.32-2.32a4 4 0 001.68 2.95zm-8.35 90.94a2.29 2.29 0 00-.94.1l-18.51-48.8 28-42.15a4.76 4.76 0 00.49.28 4 4 0 001.09.3zm-86.72 54.33a2.29 2.29 0 00-.62-.66l45.16-68.14 39.69 16a2.42 2.42 0 00.13 2zm-30.08 105.25l-43.15-112.94 68.81 8.8a2.39 2.39 0 001.4 2.41 1.76 1.76 0 00.3.1l-26.06 101.54a2.39 2.39 0 00-1.3.09zm-.63.33l-90.55-116.14a5 5 0 001.36-1.79 4.87 4.87 0 00.36-1.26l46.11 5.89 43.19 113a2 2 0 00-.47.3zM507.5 571.94l43.42-71.56c.15.09.31.17.47.25a4.81 4.81 0 004.87-.59l90.55 116.14a2.47 2.47 0 00-.67.86v.16zm-45.14 72.32l7.19-84.54L507.24 572l-44 72.52-.19-.11a2.58 2.58 0 00-.69-.15zm-.78 0l-20-81.61 13.12-7.79 14.65 4.79-7.2 84.57a2.47 2.47 0 00-.57.06zm-.68.26l-41.47-68.69 22-13.08 20 81.56a2.36 2.36 0 00-.53.23zm-99.83-34l58.21-34.58 41.47 68.69a2.36 2.36 0 00-.89 1 .38.38 0 010 .1zm-.21-.07L323 596.93l69.76-59.85a3.5 3.5 0 001 .78 2.73 2.73 0 002.55 0l22.9 37.94zM187.22 713.38l135.61-116.32 37.85 13.5-173.34 103zm-.15-.18l115.72-119.84a3.44 3.44 0 001 .7 3.54 3.54 0 004.8-1.81c0-.08 0-.16.08-.24l14 5-135.55 116.24zm-136.26-219a3.69 3.69 0 001.34-1.57.32.32 0 010-.09l249.61 96.91a3.79 3.79 0 00.87 3.79L186.94 713.08a2.23 2.23 0 00-.62-.41 2.4 2.4 0 00-2.17.1zm1.49-2l254.93 32.09-2 62.73a3.53 3.53 0 00-3.38 2.15c0 .05 0 .1-.05.14L52.23 492.38a1.72 1.72 0 00.07-.21zm.14-1.26l254.27-23.7a2.42 2.42 0 001.41 1.9 2.46 2.46 0 00.83.2l-1.72 54.78L52.35 492a3.36 3.36 0 00.09-1.09zm0-.46l233.86-52.69 21.26 27.26a2.29 2.29 0 00-.66.87 2.32 2.32 0 00-.2 1.12L52.43 490.75c-.01-.1-.02-.2-.04-.3zm-.33-.94l137.85-75.09 77.27-1.17 19 24.39-233.88 52.62a4.3 4.3 0 00-.29-.78zm86.49-73.39a2.21 2.21 0 00.21-.93l50.78-.77L52 489.36a3.45 3.45 0 00-.35-.5l82.94-72.07a2.47 2.47 0 00.78.56 2.42 2.42 0 003.18-1.23zm104.1-30.63l-52.79 28.76-51.11.77a2.44 2.44 0 00-.07-.46l103.83-29.41c-.01.08.04.19.09.31zM260 329.2a2.4 2.4 0 002.59-1.06l139.67 81.79c0 .05-.06.09-.08.14a2.55 2.55 0 00-.15.54l-154.84-25.89a2.41 2.41 0 00-1.4-2.52 2.67 2.67 0 00-.26-.09zm40.27-17.64l102.31 97.9a2.43 2.43 0 00-.24.32L262.71 328a.83.83 0 00.09-.16 2.36 2.36 0 000-1.86l34.64-15a1.85 1.85 0 00.87.94 1.63 1.63 0 001.99-.36zm42.36-8.28L403.14 409a2.24 2.24 0 00-.42.34l-102.31-97.9v-.06l.08-.14a2 2 0 01.11-.2 2.1 2.1 0 00.12-1zm-74.21-130.11a2.32 2.32 0 00.57-.51l149.15 115.42a3.39 3.39 0 00-.45.76 4 4 0 00-.3 2.2l-74.64 12zm.82-3.25l152.3-94.29a2.41 2.41 0 001 .87 2.5 2.5 0 00.88.2l-2.11 209.76a4 4 0 00-3.08 1.49L269.11 172.53a3.62 3.62 0 00.24-.43 2.39 2.39 0 00-.11-2.18z"/><path d="M164.27 497.37a2.66 2.66 0 004.64-.82v-.19a2.79 2.79 0 00.07-.58L333.3 492 318 535.88a2.13 2.13 0 00-1.82.26 1.89 1.89 0 00-.69.93v.18a1.9 1.9 0 00.41 1.59 2.16 2.16 0 001.33.76l-3.66 41.29a2.65 2.65 0 101.48 4.75 2.18 2.18 0 00.22-.21l43.51 41.68a2.67 2.67 0 00-.13 3.39 2.7 2.7 0 001.44.94L334.1 747.09a2.65 2.65 0 100 5.2l26.21 117.79a4 4 0 103.4 7 3.93 3.93 0 001.52-3.28L646 859.39a2.66 2.66 0 102.59-2.88l-8.79-221.4 85.8-77a2.65 2.65 0 10.65-4.17l-47-80.45 116.23-110.23a2.65 2.65 0 10.24-4 2 2 0 00-.26.24L711 281.24a2.66 2.66 0 00-2-4.38l-4.92-108a2.65 2.65 0 10-1.8-4.75 2.58 2.58 0 00-.49.5l-81.9-56.95a4.42 4.42 0 00-6.36-6 4.35 4.35 0 00-1.1 1.25L572.81 80.1l16-38.66a2.65 2.65 0 10-.69-4.59 2.6 2.6 0 00-.94 1.4L440.64 3.18a2.65 2.65 0 10-4.7 1.09 2.43 2.43 0 00.26.29l-41.27 45.59-105.07 6.09a2.7 2.7 0 00-.53-1.36 2.65 2.65 0 10-4.21 3.23 2.61 2.61 0 001.54 1l-24 133.17a5.25 5.25 0 00-5 8.44c0 .06.1.13.16.19l-101.24 91.32a2.65 2.65 0 10-1.84 4.49l11.39 196.39a2.56 2.56 0 00-1.37.53 2.67 2.67 0 00-.49 3.73zm143.16-203.45l52.9 111.37a4.48 4.48 0 00-.72.44 4.42 4.42 0 00-1.12 1.29L157.05 295.27a2.68 2.68 0 00.28-1.11zm54.94 332.93l106-136 .24.16-68.51 131.18-36.84 6.16a2.54 2.54 0 00-.89-1.5zm.92 1.68L400 622.4l-39.06 74.79-.16-65.66a2.64 2.64 0 002.52-3zm224.14-67.47a3.76 3.76 0 00-.29-.28l34.1-32.33 14.33 3.76 1.12 28.18-48.6 2.28a2.82 2.82 0 00-.66-1.61zm114.34-393.31l-36.17 29.93-21-39.44 56.66 7.63a2.63 2.63 0 00.51 1.88zm-89-59.89c.09.11.2.21.3.31l-37.47 40.58-29.49-4L558 115.92l53.93-9.81a4.41 4.41 0 00.79 1.75zM451 295.21a2.62 2.62 0 001.84 1L449 370.56a2.63 2.63 0 00-1.66.53 2.73 2.73 0 00-.25.23l-82.56-77.49 85.88-.14a2.63 2.63 0 00.59 1.52zm80.94 290l-60.45-94.37a.75.75 0 00.15-.09 2.38 2.38 0 00.54-.56L582 561.28a2.76 2.76 0 00-.37 2.86zm49.77-20.93a2.5 2.5 0 00.35.52 2.92 2.92 0 00.77.63l-33.55 46.83L532 585.4zM607.06 477l-57.33-37.67 75.84-47.05.25.36a5.28 5.28 0 002.76 1.87zm21.69-82.44a4.87 4.87 0 001.36.16l4 100-26.86-17.65zm-73.08-185.33a2.58 2.58 0 00-.67-.61l34.33-57.82 5 .67L515 319.79l-.15-.07 37.89-106.34a2.68 2.68 0 002.43-.43 2.65 2.65 0 00.5-3.72zm-41 110.42a3.8 3.8 0 00-1.17-.23l5.23-105.18a3.93 3.93 0 002.53-.79 4 4 0 00.7-5.58c-.12-.15-.26-.28-.39-.42l54-58.5 13.51 1.82-34.29 57.75a2.65 2.65 0 00-2.89.22 3.75 3.75 0 00-.35.33l-.12.15a2.66 2.66 0 000 3.25 2.71 2.71 0 001.13.84zM464.3 135.92a3.87 3.87 0 00.8-1.86l25.31 3.41 26.91 69.14a3.74 3.74 0 00-.78.43l-52.88-70.47a4.18 4.18 0 00.53-.5zm-6.24-.07a4 4 0 002.83 1.54l-1.69 33.18L422.26 146l35.21-11.31a4 4 0 00.59 1.16zm-191.47 59.38l87.86-42.46 8.48 12.12-96.12 30.86a4.77 4.77 0 00-.22-.52zM363 165.05l27.11 38.75-123-6.1a5.19 5.19 0 00-.26-1.78zm-8.41-12.36l44.75-21.63L421.83 146l-58.72 18.85zm67.41-6.58l37.16 24.67-1.85 36.35-67-3.31L363.22 165zm27.51 229.68a2.57 2.57 0 001-.48 2.47 2.47 0 00.54-.58l38.06 25-34.84 2.58zm4.63 26.55l-87.45 6.49a4.41 4.41 0 00-.29-1.19l80.15-33.35a2.62 2.62 0 00.3.51 2.67 2.67 0 002.47 1zm171-10.78l.08.17c.06.12.13.24.2.36l-75.91 47.09-56.69-37.28.6-2.29 131.31-9.74a5.31 5.31 0 00.46 1.69zm-115.48-65.12L451 371.53a2.68 2.68 0 00-.91-.71l27.6-64.74 31.54 15.85a4.41 4.41 0 00.43 4.51zm-54.19-31.73a2.68 2.68 0 00-.3-2.73 2.54 2.54 0 00-.39-.41l61.71-78.15a2.76 2.76 0 00.39.28l-39.28 92.13zm-2.21-3.71l4.26-83.63 57.39 2.85a4 4 0 00.81 2.5 3.7 3.7 0 00.62.63l-61.71 78.15a2.57 2.57 0 00-1.37-.5zm4.27-83.81l1.84-36.25 56.12 37.26a3.87 3.87 0 00-.58 1.83zm61 7.08l-5.22 105.18a4.36 4.36 0 00-2.82.9 4.41 4.41 0 00-1.21 1.45l-31.54-15.85L517 213.79a4.09 4.09 0 001.56.44zM512 328.07l-13 49.51-47.41-4.24a2.67 2.67 0 00-.49-1.66l58.66-45.09a4.39 4.39 0 002.24 1.48zm-12.86 49.71L624.72 389a5 5 0 000 .67l-131.24 9.74zm-6.5 24l-2.89-1.9 3.46-.26zm-3.15-2.07l-38.26-25.14a2.79 2.79 0 00.36-1.05l47.41 4.24-5.69 21.68zm-40.3-29.15l3.81-74.32a2.65 2.65 0 002.4-1.36L477.52 306l-27.6 64.74a3 3 0 00-.72-.17zm2.43-79.19L390.52 204l66.81 3.31-4.26 83.69a2.61 2.61 0 00-1.44.38zm9.45-154a3.91 3.91 0 002.42-.72l52.88 70.47a3.9 3.9 0 00-.78.85l-56.21-37.31zm4.05-3.52a4.11 4.11 0 00-.05-1l22-4 3.29 8.44zm25.5 3.62l55.16 7.43-25.51 61.7a3.89 3.89 0 00-2.77 0zm-.08-.2l-3.31-8.51L557.77 116l-11.91 28.79zM546 145l29.41 4-53.93 58.4a3.68 3.68 0 00-1-.65l7.21-17.42.08-.18zm-29 181.08l108.29 60.78a5.43 5.43 0 00-.59 2L499.2 377.6l13-49.49a4.39 4.39 0 003.74-.77 4.69 4.69 0 001.06-1.26zm90 151.07l-11.56 44.35-122.85-32.22a2.61 2.61 0 00-.31-1.94l77.27-47.94zm-136.31 9l22.07-84.05 56.61 37.2-77.2 47.89-.08-.12a2.72 2.72 0 00-1.39-.93zm-.18 0a2.82 2.82 0 00-1 0l-15.17-83.55 35.06-2.6 3.2 2zm-1.15 0a2.83 2.83 0 00-1.1.48 3 3 0 00-.44.43l-101.9-75.27a4.43 4.43 0 00.82-2.78l87.46-6.49zM360.5 405.21l-52.86-111.29 56.62-.09L447 371.45a2.62 2.62 0 00-.45 2.67l-80.16 33.35a4 4 0 00-.53-.92 4.42 4.42 0 00-5.36-1.34zm90.24-112.89l-179.13-90-5-2.51a5.2 5.2 0 00.5-1.93L390.28 204l61.19 87.47a2.54 2.54 0 00-.73.85zm-185.37-98.73l66.35-73.31 22.62 32.33-87.83 42.45a6.13 6.13 0 00-.5-.79 5.91 5.91 0 00-.64-.68zm66.48-73.45L351 99l48.16 32-44.67 21.59zm19.29-21.32l9-10L426 118l-26.62 12.86zm75.09 19.26l31.29 13.84a4 4 0 00-.11 2.64l-35.35 11.34-22.5-14.9zm.22-.11l29.39-14.2 4.57 25.78a3.86 3.86 0 00-1.65.72 3.94 3.94 0 00-1.16 1.48zM456 103.68L473.9 95l13.1 33.65-21.93 4a4.11 4.11 0 00-.73-1.61 4 4 0 00-3.73-1.51zm0-.19l-9.93-56.11 9.1-.53 18.68 48zm-.63-56.65l53.87-3.12 32.16 18.5L474 94.78zm54.21-3.14l77.54-4.5a2.36 2.36 0 00.21.82l-45.73 22.1zm63 36.48l-14.72 35.57-70.69 12.87L474.07 95l67.5-32.63zm40.57 28.13a5 5 0 00.81.64l-24.73 41.65-13.46-1.82zm1 .74l.21.09-19.91 42.16-5-.68zm-19.58 42.45l49.81 6.71 21.06 39.59L516.58 321a4.36 4.36 0 00-1.39-1.08zM707.7 277.2a3 3 0 00-.3.18 2.64 2.64 0 00-1 2.63l-188.88 42.75a4.42 4.42 0 00-.78-1.64L665.53 198zm-.27 4.38l-44.55 61.94-145.26-19.2a4.59 4.59 0 00-.07-1.38l188.93-42.75a2.76 2.76 0 00.45.91 2.51 2.51 0 00.5.48zm-44.67 62.11L633 385.05a5.23 5.23 0 00-7.59 1.65l-108.29-60.78a4.27 4.27 0 00.47-1.41zM632.6 394l46.4 79.42-31.67 30-13.07-8.59-4-100.16a5.11 5.11 0 002.34-.67zm14.62 109.54l-12.14 11.5-.8-20zm-12.32 11.71l-13.72 13-25.56-6.7 11.55-44.28L634.09 495zm0 .25l.65 16.52-14.15-3.72zM587 560.65a3.48 3.48 0 00-1.42-.65l10-38.28L621 528.4zm-1.6-.68a3.65 3.65 0 00-2.7.6 3.28 3.28 0 00-.61.56l-109.83-71.06a2.8 2.8 0 00.28-.61l122.85 32.22zm-.11 5.93l21.33 98.8-12.21 10.95a4.18 4.18 0 00-3.07-1.21L585 566zm5.87 108.55a4.27 4.27 0 00-1.75.55l-40.06-62.53L583 565.56a3.57 3.57 0 001.85.41zm-1.91.65l-.27.16a4 4 0 00-1 1l-59.5-34.66 20.75-29zm-60.93-33.6l-52-30.31a2.72 2.72 0 00.13-2.2l55.4-23.52 17.29 27zm-56-33.67a2.63 2.63 0 00-1 2.45L434 616.53l35.34-125.28a2.8 2.8 0 002-.28l60.44 94.34-55.37 23.51a2.55 2.55 0 00-.3-.5 2.66 2.66 0 00-3.77-.49zm-38.57 8.73l-33.44 5.59 68.46-131.07.34.13zm33.45-127.91l-133.65 3.11 27.37-78.3a4.42 4.42 0 004.08-.7 4.37 4.37 0 00.79-.82l84.69 62.51.17.13 17.05 12.58a2.61 2.61 0 00-.48 1.49zM264 202.36l43.4 91.37-150 .24a2.59 2.59 0 00-.54-1.52l-.08-.08L257.94 201a5.3 5.3 0 006.06 1.36zm1.65-1.12l98.46 92.4-56.51.09-43.43-91.44a4.77 4.77 0 001.48-1zm.92-1.25l184.09 92.51a2.71 2.71 0 00-.24 1l-86.08.14-98.61-92.54a5.24 5.24 0 00.79-1.1zm22.09-141.28l42.95 61.41-66.38 73.34a5.21 5.21 0 00-2.42-1.17l24-133.17a2.65 2.65 0 001.85-.41zm.71-.68l61.49 40.82L331.74 120l-42.92-61.39a2.6 2.6 0 00.55-.61zm.23-.38L360 88.77l-9 9.94-61.5-40.83zm105.16-7.3l-34.65 38.28-70.43-31.15a2.91 2.91 0 00.19-1zm.26 0l50.85-3 9.94 56.18-29.58 14.3-65.94-29.12zm43.4-45.06l7.41 41.92-50.63 2.93 41.14-45.46a2.63 2.63 0 002.08.6zm.5-.13l16.16 41.52-9.06.52-7.42-41.96zm1.37-1.09l68.63 39.48-53.65 3.12-16.18-41.58a2.72 2.72 0 00.57-.33 2.6 2.6 0 00.63-.7zm146.85 34.36a2.28 2.28 0 000 .58l-77.83 4.52-68.92-39.64a2.41 2.41 0 00.2-.53zM572.65 80l-30.87-17.76 45.61-22.05a2.2 2.2 0 00.24.38 2.58 2.58 0 001 .79zm39.7 23.06a4.44 4.44 0 00-.46 2.86l-53.81 9.79 14.66-35.44zm5.9 6l26 48.9-49.62-6.68 19.86-42.1a4.42 4.42 0 003.76-.08zm83.44 55.63a2.44 2.44 0 00-.39 1L644.5 158l-26.09-49c.18-.11.36-.21.53-.33a4.92 4.92 0 00.86-.91zm7.13 112.12a2.48 2.48 0 00-1 .25l-42.18-79.25 36.21-30a2.67 2.67 0 002 .93zm85.91 84.09l-131.64-17.35 44.49-61.86a2.63 2.63 0 003.06-.08 2.89 2.89 0 00.25-.24l84.44 78.27a2.51 2.51 0 00-.6 1.3zm0 .78l-159.52 26.7a5.36 5.36 0 00-2-3.26l29.79-41.4 131.74 17.4a2.41 2.41 0 00-.03.6zm-115.57 111.6l-46.39-79.35a4.45 4.45 0 00.48-.32 5.27 5.27 0 002-5l159.51-26.7a2.72 2.72 0 00.49 1.1l.12.13zm46.22 81.42l-77.86-51.16 31.59-30 47 80.41-.21.13a2.64 2.64 0 00-.52.62zm-.38.77l-89.25-23.4-.66-16.75 12.29-11.65 77.9 51.19a2.8 2.8 0 00-.28.61zm-.11.79l-88 4.13-1.12-28.13 89.2 23.4a2.46 2.46 0 00-.08.6zm-85.06 78.61l-3-74.3 88-4.12a2.66 2.66 0 00.53 1.4l.08.08zm-.18.16l-32.87 29.52-21.31-98.67a3.8 3.8 0 001.27-.56 3 3 0 001.35-2.46l48.61-2.28zm8.58 221.52l-41.4-191.79 32.83-29.48 8.78 221.24zm-.26.05l-55.2-174.43a4 4 0 001.21-.6 3.9 3.9 0 00.76-5.58c-.06-.08-.13-.13-.19-.2l12.12-10.88L648 856.58zm-282.75 17a3.94 3.94 0 00-.81-2.11l-.07-.07 224.13-190.33a4.17 4.17 0 004.12 1.15l55.2 174.43a2.83 2.83 0 00-.73.38 2.66 2.66 0 00-1 2.15zm-1.18-2.5l164.33-229.35 59.54 34.7a3.91 3.91 0 00.31 4.4l.12.11-224.13 190.36zm-1.14-.79L473 612.41a2.64 2.64 0 002.57-.37 2.72 2.72 0 00.62-.69l52 30.31L363.91 871a3.63 3.63 0 00-1.01-.65zm-.47-.2l71.49-253.42 37.44-6.26a2.81 2.81 0 00.49 1.09 2.64 2.64 0 001 .77L362.73 870.27zm-1.08-.17l-.42-172.39 39.29-75.23 33.49-5.6-71.46 253.39a3.91 3.91 0 00-.9-.11zm-25.63-121.87a2.59 2.59 0 00-.79-.69L360.74 698l.43 172a5.23 5.23 0 00-.68.07l-26.21-117.81a2.4 2.4 0 001-.46 2.66 2.66 0 00.44-3.73zm24.86-116.55l.16 66-26 49.75a2.64 2.64 0 00-.47-.17l25.9-115.65a2.71 2.71 0 00.41.07zm-45.26-46.22a2.66 2.66 0 00.33-3.06l152-92.09a1.19 1.19 0 01.09.15 3.64 3.64 0 00.45.43l-106 136a2.66 2.66 0 00-3.17 0l-.22.21zm4-48.12l148-47.58a3.62 3.62 0 00.19.4l-152 92.08c0-.05-.06-.11-.11-.17a2.63 2.63 0 00-1.77-1l3.66-41.28a2 2 0 001.36-.35 1.79 1.79 0 00.7-2.1zM333.51 492l133.71-3.11a2.37 2.37 0 00.11.58L319.27 537v-.07l-.1-.16c0-.07-.09-.14-.14-.2a2.26 2.26 0 00-.89-.64zM169 495.59a2.72 2.72 0 00-.2-.83l189.5-83.64a4.69 4.69 0 00.5.83 4.37 4.37 0 002 1.43l-27.4 78.38zm-2.71-2.49l-11.36-196.39a2.77 2.77 0 001.38-.53 3 3 0 00.65-.74L358.4 407.18a4.46 4.46 0 00-.16 3.76l-189.47 83.65a2.22 2.22 0 00-.29-.46 2.62 2.62 0 00-2.16-1.03z" opacity=".3" fill="#cecccb"/><path d="M549.65 120a2.42 2.42 0 00.27 4.28l.16.06a2.44 2.44 0 00.52.12l-13.17 149-38.19-18.34a1.91 1.91 0 00-.06-1.68 1.63 1.63 0 00-.76-.71l-.16-.05a1.74 1.74 0 00-1.49.2 2.05 2.05 0 00-.82 1.13l-37-7.49a2.41 2.41 0 10-4.44.85.94.94 0 00.16.23l-42.13 35.15a2.4 2.4 0 00-4 .74l-102-35.14a2.41 2.41 0 10-4.7-.53l-109.24 11.8a3.53 3.53 0 00-.48-1.41 3.64 3.64 0 00-6.23 3.77 3.58 3.58 0 002.81 1.71l-15.43 255.64a2.49 2.49 0 00-1.31.34 2.42 2.42 0 103.66 2.3l201.23 14.46 61 85.44a2.41 2.41 0 103.71 1l77.56-34.42 88 116.33a2.41 2.41 0 103.59.62c-.06-.09-.13-.17-.2-.26l79.38-68.47a2.43 2.43 0 004.17-1.39l98.26 6.49a2.38 2.38 0 00.35 1.35 2.42 2.42 0 104.14-2.51 3.23 3.23 0 00-.41-.49l59.83-68.34a4 4 0 006-5.15 4.09 4.09 0 00-1-1.13l24.66-33.5 33.36 18.39a2.38 2.38 0 00.08 2.34 2.42 2.42 0 104.14-2.5 2.39 2.39 0 00-1.17-1l46.57-129.06a2.41 2.41 0 10-.52-4.36l-.28.21L931 374l5.12-95.7a2.38 2.38 0 001.3-.35 2.41 2.41 0 10-2.5-4.13 2.32 2.32 0 00-1 1.3l-118.13-35.2a4.73 4.73 0 00-.5-3.76 4.83 4.83 0 00-6.63-1.6l-.19.13-72.41-100.86a2.41 2.41 0 10-3.88-2.12l-178.87-9.57a2.41 2.41 0 00-3.66-2.12zm169.61 150.17l-106.14 36.59a4 4 0 00-.33-.69 3.85 3.85 0 00-1-1.15l121.51-171a2.34 2.34 0 001 .37zm-306.83 16l112.34 109.7a1.73 1.73 0 00-.17.21l-111.78-75.29-1.85-34a2.35 2.35 0 001-.33 3.32 3.32 0 00.46-.28zm-1.63.66l1.84 33.83-63.73-42.92 59.44 6.5a2.36 2.36 0 00.34 1.43 2.4 2.4 0 002.11 1.17zm38.37 209.67a3.22 3.22 0 00.28-.24l25.8 34.13L470.4 543l-25.62-1.84 2.86-44.21a2.62 2.62 0 001.53-.45zm344.34 143.29L770.09 604l37.81-15-12.64 50.5a2.41 2.41 0 00-1.75.29zm63.21-74.52a2.55 2.55 0 00-.31.24l-32.93-38 6.58-26.29L855 514.93l3.42 49.79a3.93 3.93 0 00-1.7.55zM703.56 399.92a2.4 2.4 0 00-1.11 1.56l-66.88-11a2.4 2.4 0 00-.31-1.56 2.27 2.27 0 00-.18-.25l78.48-66.87-8.56 77.78a2.36 2.36 0 00-1.44.34zM432.91 443.8l91.52-45.15a.94.94 0 00.06.15 2.45 2.45 0 00.46.55l-75.43 92.19a2.5 2.5 0 00-2.55-.63zm13.9 47.2a2.42 2.42 0 00-.5.27 2.6 2.6 0 00-.65.63l-39-35.1 26.09-12.87zm76.48 31.82l39.89-48.06 34.9 73.39a3.9 3.9 0 00-.35.19 4.83 4.83 0 00-2 2.3zm72.4 28a5 5 0 00-.29 1.22l-90.92-6.54 18.7-22.52zm175.08-47.37a2.48 2.48 0 00.61-.55l48.85 36.92-1.12 4.49-144.28-88.91.08-.14 92.39 45.07a2.42 2.42 0 003.47 3.05zM675 455.12a3.87 3.87 0 00.33-1L770 469.46a3.5 3.5 0 00.46 2.37 3.61 3.61 0 005 1.2 4.13 4.13 0 00.42-.31l47.47 54.81-3 12-48.86-36.83a2.4 2.4 0 00-.17-3l-.13-.12a2.41 2.41 0 00-2.93-.35 2.47 2.47 0 00-.88.94zm171.36-27a3.5 3.5 0 001.6.92l-5.64 22.56L777 468.94a4.09 4.09 0 00-.31-.75l69.12-40.72a3.51 3.51 0 00.4.53zm.7-5.63a3.62 3.62 0 00-1.68 2.41l-29.86-4.9 25.93-30.95 6.67 33a3.46 3.46 0 00-1.07.43zM812.7 243.2l29.53 83.8-11.83 6.45-18.19-90.11a2.75 2.75 0 00.49-.14zm17.55 90.33l-37.82 20.61 18-110.71a5 5 0 001.63-.05zm12-6.36l15 42.68-15.77 18.82-11.11-55.05zm-.88 61.67L815.32 420l-32.71-5.35 9.79-60.26 37.88-20.64zm-210.63 1.64a2.51 2.51 0 00.33 1 2.79 2.79 0 00.47.55l-26.44 31.91 1.18-31.79zM606.29 392l3-79.8a3.8 3.8 0 001.11-.14L632.44 388a3.16 3.16 0 00-.5.22 2.43 2.43 0 00-1.16 2.13zm-7.56 155.85h-.16l-.34.15-34.93-73.43L602.78 427l2 .77-4.47 119.82a4.78 4.78 0 00-1.58.24zm70.62-98l-34.86-57.66a2.24 2.24 0 00.73-.74L691 423l-17.52 27a4 4 0 00-4.13-.12zm34.21-45.83a2.39 2.39 0 002.5 0 2 2 0 00.4-.31l64.47 63.76a3 3 0 00-.29.32L691.25 423zm3.62-1.62l75.24 12.32L774 466.4a3.61 3.61 0 00-2.35.48 3.42 3.42 0 00-.63.49l-64.47-63.76a2.34 2.34 0 00.63-1.18zm75.41 12.35l32.61 5.34-39.4 47a3.56 3.56 0 00-1.6-.71zM770 469.29l-94.66-15.37a3.94 3.94 0 00-1.72-3.89l17.54-26.94L770.55 468a3.68 3.68 0 00-.55 1.29zm-102.36-17.46l-43.48-16.77 8.63-42.47a2.47 2.47 0 001.56-.28L669.21 450a3.93 3.93 0 00-1.57 1.83zM624 435.17l-22.91 112.49a3.17 3.17 0 00-.61-.07L605 427.83zm-21.07-8.31l2-2.43-.12 3.16zm2.2-2.65l26.62-32.07a2.54 2.54 0 00.91.43L624 435l-19-7.34zm30.45-33.51l66.88 10.95a2.4 2.4 0 001 2.31l-12.31 18.9-55.79-31.53a2.08 2.08 0 00.18-.63zM707 400.91l85.25-46.46-9.76 60.13-75.29-12.32a2.38 2.38 0 00-.2-1.35zm138.38 24.14a3.57 3.57 0 00.41 2.27L776.63 468a3.87 3.87 0 00-.7-.8l39.46-47.09zm2.78 4a3.77 3.77 0 001 .07l1.4 20.28-8 2.12zm-5.86 22.71L830 501l-53.22-29.34a3.5 3.5 0 00.32-2.5zm.19 0l8-2.13 4.51 65.1L830.11 501zm-12.54 49.38l-6.56 26.22L776 472.62a3.73 3.73 0 00.69-.86l15 8.29.15.08zm-161-44.53l-66 91.84a4.89 4.89 0 00-1.71-.73l22.86-112.46L667.59 452a4 4 0 00.32 3.46 3.86 3.86 0 001.03 1.12zm-145.83 66.1l-38.95-15 41.59-107.91a2.3 2.3 0 001.78-.08l35.56 74.78zm5.66-124.26l73.83 28.48-39.39 47.47-35.53-74.72.12-.05a2.53 2.53 0 00.97-1.18zm.06-.16a2.53 2.53 0 00.13-.86l77.15-5.27-1.2 32-2.19 2.64zm.12-1a2.39 2.39 0 00-.33-1.05 2.07 2.07 0 00-.34-.44l78.38-84.61a4 4 0 002.43 1l-3 79.81zm84.22-90.34l106.06-36.56-5.65 51.24-78.62 67a2.38 2.38 0 00-2.37-.68L610.54 312a3.67 3.67 0 00.89-.38 4 4 0 001.75-4.7zm93 93.09l99.56-153 2.79-4.27a4.83 4.83 0 001.69.65l-18 110.84-85.36 46.52a2.51 2.51 0 00-.66-.78zm108.13-157.78l59.62 67.47-31.55 17.19-29.52-83.78a4.84 4.84 0 00.76-.37 4.4 4.4 0 00.69-.51zm59.74 67.6l17.22 19.49-33.82 40.35-15-42.62zm17.33 19.62l8.11 9.17-33 56.63-9-25.4zm-25 66l-15.69 26.92a3.61 3.61 0 00-2.37-.37l-6.69-33.14L857.39 370zm.08.21l9.88 28-23.79 1.52a3.62 3.62 0 00-.5-1.57 3.47 3.47 0 00-1.22-1.19zm9.94 28.21l6 17.05-31.75 8.44-1.38-20.25a3.74 3.74 0 001.52-.5 3.62 3.62 0 001.75-3.22zm.17 0l51.78-3.3-.44 8.28-45.34 12zm51.3 5.1l-2.63 49.07-20 27.23-22.64-64.24zm-2.64 49.38L921.44 549a2.22 2.22 0 00-.76.11l-15.37-43.62zm-39.39 53.33l-30.71-16.92-4.48-65.27 31.78-8.44 22.69 64.38zm-29.57 33.87a3.8 3.8 0 00-.66.67l-35.18-26.6 3-12zm-.77.8c0 .06-.07.13-.1.18l-36.14-22.25 1.12-4.47zm-36.44-22L808 588.82l-38 15-96.38-147.13a3.83 3.83 0 001.12-1.15zm-125.2 89.65a2.55 2.55 0 00-.13-.29 2.4 2.4 0 00-2.28-1.13l-19.56-175.25a3.93 3.93 0 001.56-.54l96.35 147.14zm-3.93-.69l-51.54-46.54 32.08-129.51a3.74 3.74 0 001.25.08l19.56 175.3a2.52 2.52 0 00-.87.31 2.32 2.32 0 00-.48.4zm-51.68-46.71l-34.42-31.11a4.81 4.81 0 00.53-5.67 4.46 4.46 0 00-1.25-1.37l66-91.84a4 4 0 001.22.57zm-42.5-32.38l-76.55 34-24-31.69 9.1-11 91 6.55a4.74 4.74 0 00.45 2.18zm-100.61 2.13L486 544.27l18.18 1.31zm-9.32-12.33l-10.37-13.72 8.65-22.46 38.9 14.98-18.74 22.57zm-.22 0l-15-1.08 4.79-12.44zm-36-47.92a3 3 0 00.73-1.22l33.63 12.92-8.61 22.35zm.78-1.38a3.32 3.32 0 00-.27-2.5 2.8 2.8 0 00-.44-.61l75.43-92.2a2.29 2.29 0 00.51.32L484 507.69zm-5.36-.7l-91.55 9.3-8.68-12.15a3.78 3.78 0 001.4-2.66L445 493.8v.27zm-98.82-5.68a3.71 3.71 0 00-.32-1.63l60.65-29.93 39 35.16a3.15 3.15 0 00-.55 1.64zm-.39-1.79a2.06 2.06 0 00-.12-.26 3.42 3.42 0 00-.84-1L382.26 435l24.11 21.71zm36.57-51.74l32.7-44a2.41 2.41 0 002 .35l15.68 52.51-26.18 12.92zm36.14-47.25a2.41 2.41 0 00-2.12-1.15L414.51 352l109.79 44.68a2.54 2.54 0 00.05 1.82l-91.48 45.14-15.67-52.48a2.62 2.62 0 00.48-.23 2.42 2.42 0 00.82-3.32zm-4-35.78L412.83 321l111.68 75.23a1.51 1.51 0 00-.15.28zm112.37 43.22l10.71-121.26 68.09 32.7a4 4 0 00.87 4.56l-65.16 70.33-.13.14-13.1 14.15a2.4 2.4 0 00-1.3-.6zm279.64-155l-87.08 30 15-135.78a2.38 2.38 0 001.43-.33l.08-.07 72.42 100.86a4.82 4.82 0 00-1.87 5.38zm.85 1.61l-93.58 79.74 5.63-51.14 87.15-30.05a4.88 4.88 0 00.43.93 6.15 6.15 0 00.35.58zm1 1L706 399.92a2.52 2.52 0 00-.88-.32l8.59-77.91 93.72-79.86a4.86 4.86 0 00.97.83zM934 277l-59.93 32.65-59.64-67.49a4.88 4.88 0 001.3-2.07l118.08 35.23A2.35 2.35 0 00934 277zm.54.71l-43.17 51.51-17.17-19.44 59.88-32.64a2 2 0 00.47.56zm.32.25l-35.29 60.54-8.09-9.15 43.18-51.52zm-4 95.89l-31.14-35.22L935 278a2.46 2.46 0 00.92.28zm0 .25l-2.48 46.31-51.85 3.31-9.94-28.22 33.07-56.71zm36.39 43.83l-38.7 2.47 2.45-46.13 37 41.83a2.38 2.38 0 00-.8 1.82zm.06.47l-39.26 10.4.45-8.24 38.71-2.47a1.57 1.57 0 00.05.3zm.85 1.35l-42.68 58.11L928 429l39.26-10.43a1.92 1.92 0 00.24.55 2.2 2.2 0 00.61.62zm-46 129.41a2.38 2.38 0 00-.53-.11l3.8-70.88 42.84-58.32a2.17 2.17 0 00.45.24zM886 531.82l19.2-26.13 15.33 43.51a1.76 1.76 0 00-.37.17 2.38 2.38 0 00-.81.83zm-24.9 33.59a4 4 0 00-2.54-.69L855.15 515l30.58 16.86zm-6.1 4.73l-46.88 18.6 11.07-44.23 36.09 22.23a4 4 0 00-.28 3.4zM796.25 640a2.32 2.32 0 00-.83-.45l12.68-50.63 47-18.64a4.81 4.81 0 00.25.51 4.43 4.43 0 00.73.87zm-102.18-4.9a2.55 2.55 0 00-.13-.9l76-30.14 23.44 35.8a2.43 2.43 0 00-1 1.73zm-84.79 69.22L638.34 587l51.47 46.52a2.39 2.39 0 00-.23 2.78 1.5 1.5 0 00.19.25L610.39 705a2.43 2.43 0 00-1.11-.66zm-.71-.09l-8-147a4.82 4.82 0 002.13-.69 4.63 4.63 0 001-.83l34.49 31.18-29.08 117.41a2.47 2.47 0 00-.54-.05zm-89.26-115.84l76.5-33.95c.08.16.16.32.25.47a4.77 4.77 0 004.33 2.3l8 147a2.35 2.35 0 00-1 .33l-.13.1zM441 622l54.18-65.29 23.92 31.63-77.53 34.4c0-.06-.06-.13-.1-.19a2.28 2.28 0 00-.47-.55zm-.65-.42l30.21-78.4 15.22 1.1 9.3 12.29-54.2 65.32a2.37 2.37 0 00-.58-.33zm-.71-.18l5.18-80.07 25.57 1.84-30.2 78.35a2.57 2.57 0 00-.6-.14zm-62.52-84.93l67.53 4.85-5.18 80.06a2.41 2.41 0 00-1.32.34l-.08.07zm-.13-.18l-23.38-32.74 91.39-9.31a3.29 3.29 0 00.38 1.21 2.73 2.73 0 002.09 1.46l-2.87 44.22zM175.62 521.6l177.74-18.05 23.36 32.7-201.09-14.46c0-.06-.01-.13-.01-.19zm0-.24L339 489.07a3.85 3.85 0 00.42 1.16 3.57 3.57 0 005 1.25l.2-.16 8.62 12.07-177.64 18v-.03zm13.21-257.59a3.62 3.62 0 002-.52l.07-.06 149.57 222.1a3.81 3.81 0 00-1.47 3.61l-163.44 32.29a2.33 2.33 0 00-.28-.7 2.39 2.39 0 00-1.84-1.14zm2.38-.81l190.92 171.92-37.43 50.38a3.54 3.54 0 00-4-.17.87.87 0 01-.11.09L191 263.09zm.83-1l222.25 125.8a2.42 2.42 0 00.07 2.36 2.27 2.27 0 00.56.63l-32.69 44-190.9-171.9a3.73 3.73 0 00.67-.85zm.23-.4L414.34 352l1.87 34.51a2.46 2.46 0 00-1 .34 2.33 2.33 0 00-.81.81l-222.29-125.8zm.26-1l156 17.07 64.1 43.18 1.68 30.87-222-90.32a3.78 3.78 0 00.2-.72zm112.91-10.85a2.61 2.61 0 00.71-.65l42.11 28.36-155.7-17a3.11 3.11 0 000-.61l109.23-11.8a2.63 2.63 0 00.33.91 2.42 2.42 0 003.3.87zm103 34.29l-59.76-6.54L306.22 249a3.11 3.11 0 00.2-.41l102 35.15a3.59 3.59 0 00-.05.34zm46.41-36.27a2.43 2.43 0 002.74.6l67.94 146.91-.14.06a2.56 2.56 0 00-.44.36L412.54 286.05a2.42 2.42 0 00.29-2.87l-.17-.22zm43.14 8.51L526 395.11a1.9 1.9 0 00-.38.13l-67.94-146.9.17-.08a2.46 2.46 0 001.1-1.5l37 7.49a1.87 1.87 0 00.18 1.27 1.63 1.63 0 001.79.8zm39.5 17.39L526.7 395a2 2 0 00-.54 0l-28.08-138.8h.07l.15-.07.2-.1a2 2 0 00.66-.74zm13.28-149.13a2.26 2.26 0 00.77-.09l56.51 179.93a4.37 4.37 0 00-.8.36 4 4 0 00-1.5 1.64l-68.15-32.73zm2.53-2.19l178.87 9.58a2.35 2.35 0 00.35 1.29 2.12 2.12 0 00.6.66l-121.52 171a4.05 4.05 0 00-3.39-.54L551.7 124.37a1.85 1.85 0 00.45-.21 2.36 2.36 0 001.15-1.85z" fill="#e6e7e7"/><path d="M219.68 127.16a2.41 2.41 0 002.67 3.35h.17a3 3 0 00.49-.2l74.31 129.87-41.83 6.76a1.91 1.91 0 00-1-1.34 1.66 1.66 0 00-1-.15h-.16a1.76 1.76 0 00-1.1 1 2 2 0 000 1.4l-34.65 15a2.41 2.41 0 10-3.15 3.24 2 2 0 00.26.09l-14.51 52.91a2.42 2.42 0 00-2.76 1.37 2.34 2.34 0 00-.13 1.56l-103.9 29.41a2.48 2.48 0 00-1.31-1.43 2.42 2.42 0 00-2.86 3.73L6.29 445.75a3.52 3.52 0 00-1.2-.88 3.64 3.64 0 00-3 6.64 3.52 3.52 0 003.28-.2l133.38 218.57a2.53 2.53 0 00-.88 1 2.42 2.42 0 104.31-.2l173.45-103.02 98.9 35.34a2.41 2.41 0 103.61-1.29l44-72.55 138.63 45.28a2.41 2.41 0 004.52 1.65 2.43 2.43 0 00-1.22-3.2l-.31-.1 26.08-101.59a2.42 2.42 0 002.63-3.52l84.37-50.79a2.37 2.37 0 001.06.91 2.42 2.42 0 102-4.42 2.32 2.32 0 00-.61-.17l10.08-90.27a4 4 0 002-7.68 3.89 3.89 0 00-1.47-.34l1.1-41.62 37.89-4a2.41 2.41 0 103.37-2.54 2.46 2.46 0 00-1.53-.14l-35.52-132.5a2.41 2.41 0 10-2.91-3.29 1.93 1.93 0 00-.11.34l-54.41-13.27-50.44-81.49a2.46 2.46 0 00.86-1 2.42 2.42 0 10-4.52-.31l-117 38.51a4.76 4.76 0 00-2.56-2.8 4.81 4.81 0 00-6.35 2.48l-.08.21L380.59 32a2.41 2.41 0 00-4.5-1.71 2.42 2.42 0 00.11 2.18L223.9 126.8a2.35 2.35 0 00-1-.87 2.42 2.42 0 00-3.22 1.23zm225 26.39l-66.25 90.65a4.34 4.34 0 00-.66-.38 3.94 3.94 0 00-1.52-.34l2.11-209.75a2.33 2.33 0 001-.26zM201.92 341.91l154.87 25.9a2.28 2.28 0 000 .26l-134.76 2-20.93-26.79a2.26 2.26 0 00.66-.86 2 2 0 00.16-.51zm-.95 1.47l20.83 26.73-76.8 1.16 52.5-28.61a2.39 2.39 0 003.49.72zm151.22 150.2a2.3 2.3 0 00.1-.35L393 506.51l3.21 13.11-22.08 13.11-22.9-37.92a2.46 2.46 0 00.96-1.23zm364.5-79l-39.65-16 22.47-33.91L718 413.35a2.4 2.4 0 00-1.31 1.22zM726 317.3a2.65 2.65 0 00-.12.37l-48.74-12.4-9.62-25.34 28.29-3 31.25 38.93a3.8 3.8 0 00-1.06 1.44zM505.87 269a2.4 2.4 0 000 1.91l-61.17 29.24a2.39 2.39 0 00-1.15-1.11 2.46 2.46 0 00-.29-.09l26.24-99.72 37.35 68.7a2.39 2.39 0 00-.98 1.07zM308.76 459.61l49.34-89.32a1.48 1.48 0 00.13.08 2.54 2.54 0 00.69.19l-9.27 118.75a2.53 2.53 0 00-2.45.94zm38.33 30.77a2.71 2.71 0 00-.26.51 2.65 2.65 0 00-.17.89l-52.05-6.56 14.07-25.46zm81-17.55l5.29-62.24 70.56 40.32-.18.35a4.8 4.8 0 00-.3 3zm75.41-18.38a5 5 0 00.46 1.16l-78.38 46.56L428 473zm116.62-138.87a2.28 2.28 0 00.19-.8l61.19 2.41 1.65 4.33L514 331a.86.86 0 010-.16l101.58-15.77a2.41 2.41 0 004.58.53zm-106.18 15.07a4.11 4.11 0 00-.32-1l86.48-41.43a3.57 3.57 0 006.5-.17 4.2 4.2 0 00.17-.5L677 305.41l4.4 11.61-61.11-2.42a2.41 2.41 0 00-1.44-2.21 1.53 1.53 0 00-.41-.14h-.17a2.41 2.41 0 00-2.61 1.39 2.45 2.45 0 00-.18 1.27zm125.25-120a3.58 3.58 0 001.84-.16l8.25 21.74-43.69 51.53a3.52 3.52 0 00-.69-.44l33.49-72.9a3.06 3.06 0 00.63.2zm-2.64-5a3.63 3.63 0 000 2.94l-27.29 13 3.61-40.21 24.32 23.29a3.65 3.65 0 00-.64.93zM506 78.05L578.07 130 572 142l-66.35-63.55c.11-.13.22-.26.35-.4zm66 64.13l-19.28 38.51-48.5-101.15a4.74 4.74 0 001.31-1zm6.25-12.1l36.71 26.45-2.24 24.47-40.55-38.84zm34.45 51.12l-3.63 40.46-29.91 14.28-26.39-55.05 19.32-38.58zm-172 121.63a2.24 2.24 0 00.84.64 2.49 2.49 0 00.7.18L438.76 345l-17.18-26.8zm-19.25 15.22l-43.12-67.2a3.89 3.89 0 00.82-.75l61.46 49.72a1.92 1.92 0 00-.27.46 2.43 2.43 0 00.25 2.42zm82.79 132.27l-.1.13a3.21 3.21 0 00-.19.31l-70.63-40.35 5.24-61.6 2.09-.51 64.75 100.91a4.88 4.88 0 00-1.12 1.11zm2-120.75l-61.54-27.42a2.33 2.33 0 00.17-1l63.81-6 1 32.12a4 4 0 00-3.36 2.3zm1.91-57.16a2.39 2.39 0 002.06-1.41 2.48 2.48 0 00.15-.49L599.77 286a3 3 0 000 .43l-90.8 8.5zm2-3.39l68.81-32.85 22.6 47.18a3.67 3.67 0 00-1.65 1.74 4.29 4.29 0 00-.24.77l-89.33-15.52a2.39 2.39 0 00-.07-1.34zm69-32.92l29.82-14.24-5.5 61.08a3.71 3.71 0 00-1.71.33zM600 288l-86.49 41.44a3.93 3.93 0 00-1.94-1.87 4.14 4.14 0 00-1.68-.34l-1-32.13 90.79-8.5a3.71 3.71 0 00.32 1.4zm-94 44.12l-45.27 11.07-17.17-39.8a2.46 2.46 0 001.12-1.11l61.54 27.42a4 4 0 00-.22 2.45zm-45.37 11.27l45.46 105.41a3.5 3.5 0 00-.54.29l-64.68-100.84zm-22 5.21l.27-3.15 1.7 2.66zm.29-3.43l3.53-41.53a2.4 2.4 0 001-.17l17.15 39.76-19.82 4.84zm5.86-44.9l61.16-29.2a2.37 2.37 0 001.17 1.12 2.28 2.28 0 001 .21l.69 22.54-63.81 6a2.4 2.4 0 00-.22-.64zm64.46-32.4l43.45-86.82L579 236l-68.8 32.86a2.45 2.45 0 00-.97-.96zm127.39-59.21a3.55 3.55 0 001.62 1.63l-33.49 72.9a3.39 3.39 0 00-1-.26l5.51-61.19zm4.57 1.71a3.24 3.24 0 00.82-.49l12.73 15.86-5.34 6.29zm8.16 22l18 47.39-60.44 6.32a3.6 3.6 0 00-1.16-2.25zm.12-.14l5.38-6.34 40.86 50.91-28.21 2.94zm17.91 47.69l9.61 25.29-70.14-17.85a3.64 3.64 0 00.07-1.09l17.07-1.79h.18zm-157.58 55.39l-1.71 113.06a4.72 4.72 0 00-1.82.39l-45.45-105.38 45.25-11.06a4 4 0 003.73 3zm-81.94 137.56l-40.52 10-27.48-112.37a2.28 2.28 0 001.41-1.09l71.9 41.09zm-66.31-105.24l76.87-18.78-5.23 61.46-71.83-41.05.06-.1a2.52 2.52 0 00.13-1.53zm-.05-.16a2.74 2.74 0 00-.38-.79l60.32-48.38 17.29 26.95-.3 3.42zm-.49-.92a2.38 2.38 0 00-.86-.67 2.81 2.81 0 00-.54-.17l16-114.22a4.06 4.06 0 002.58-.54l43.12 67.21zm17.55-122.24l66.18-90.59L469.38 199l-26.28 99.9a2.39 2.39 0 00-2.34.79L379.3 250a4 4 0 00-.73-5.66zm129.52 23.28l-5.63-182.44-.16-5.1a4.84 4.84 0 001.76-.43l48.53 101.27-43.51 86.93a2.53 2.53 0 00-.99-.23zm-1.34-191.23l87.48 21.33-16.09 32.14-72.08-51.92a4.88 4.88 0 00.42-.74 4.53 4.53 0 00.27-.81zm87.64 21.38l25.27 6.16-4.72 52.43-36.66-26.4zm25.44 6.2l11.89 2.9 5.28 65.34-21.9-15.73zM637 172.41l2.49 31.06a3.65 3.65 0 00-2.16 1.05l-24.42-23.38 2.21-24.49zm.18.13l24.12 17.37-18.66 14.84a3.42 3.42 0 00-3-1.29zM661.41 190l14.68 10.57-21.24 25-12.7-15.83a3.63 3.63 0 00.56-4.93zm.14-.11l40.62-32.29 4.37 7-30.34 35.86zm45.08-25.08l25.87 41.78-.87 33.77-55.29-39.82zm26 42L769.88 267a2.3 2.3 0 00-.56.52l-37.53-27zm-1.88 66.28l-34.87 3.64-40.95-51 21.27-25.08 55.39 39.9zm-4.93 44.68a4.32 4.32 0 00-.16.93l-44.04-1.7-4.38-11.56zm-.17 1.1a1.49 1.49 0 000 .21l-42.37 2.37-1.64-4.31zm-42.47 2.76l16.23 42.79-22.56 34-163.14-65.69a3.82 3.82 0 00.27-1.58zm-51.55 145.15a1.56 1.56 0 00-.28-.16 2.36 2.36 0 00-2.51.37L512.68 334.27a4 4 0 001-1.34L676.8 398.7zm-3.63 1.69l-68.91-8.82L511.47 335a3.79 3.79 0 001.07-.65L628.71 467.1a2.31 2.31 0 00-.53.76 2.15 2.15 0 00-.18.61zm-69.1-8.84l-46-5.89a4.78 4.78 0 00-4.61-5.37l1.71-113a4.58 4.58 0 001.33-.23zm-53.38-2.32l-43.43 71.6-37.77-12.34 1.21-14.19L504 455.76a4.69 4.69 0 001.52 1.55zm-81.36 59.21l-14.48-4.73 15.67-9.31zm-14.69-4.8l-16.36-5.34-5.72-23.38 40.47-9.95-2.49 29.23zm-.2.12l-12.94 7.69-3.18-12.95zm-56.93-18.77a3.1 3.1 0 00-.1-1.42l35-8.61 5.7 23.28zm-.15-1.58a3.13 3.13 0 00-2.37-2.15l9.27-118.76a2.47 2.47 0 00.61 0l27.48 112.33zm-4.8 2.48l-69.85 59.92-14.07-5a3.73 3.73 0 00-.36-3l84.11-52.14a1.84 1.84 0 00.17.25zM263 545.74a3.8 3.8 0 00-1.2-1.16l32.7-59.19 52.15 6.61a3.2 3.2 0 00.48 1.66zm-1.34-1.25c-.09 0-.16-.1-.24-.14a3.78 3.78 0 00-1.25-.32l2-62.72 32.19 4.05zm.47-63.35l1.71-54.8a2.39 2.39 0 001.82-.85l42.86 34.16-14.09 25.55zm2.69-59.42a2.4 2.4 0 00-2.4.26l-21.2-27.21 115.63-26a2.5 2.5 0 001.15 1.43l-49.33 89.3-42.83-34.14a2.56 2.56 0 00.27-.45 2.41 2.41 0 00-1.27-3.19zm-23.72-27.1l-19-24.34 134.63-2a3.31 3.31 0 000 .33zM358 365.94l-60.41-105.67 74.57-12a4 4 0 002.32 3 3.65 3.65 0 001 .28l-13.32 94.92v.2l-2.68 19.1a2.29 2.29 0 00-1.48.17zM499.11 79l-54.34 74.4-65.25-120a2.47 2.47 0 001-1.1v-.1l117 41.43a4.84 4.84 0 001.59 5.37zm1.62.83l-31.29 118.94-24.58-45.21 54.38-74.43a4.85 4.85 0 00.88.52 4 4 0 00.61.21zm1.4.2l5.78 187.55a2.37 2.37 0 00-.91.25L469.56 199l31.33-119.09a5.26 5.26 0 001.24.15zm122.72-43.51l-30.55 61-87.51-21.32a4.83 4.83 0 00-.11-2.45l117.05-38.51a2.41 2.41 0 001.12 1.28zm.84.27l-6 66.94-25.21-6.15L625 36.6a2.54 2.54 0 00.69.19zm.41 0l5.6 69.85-11.85-2.89 6-67zm51.45 81l-45.67-11.09-5.61-69.91a2.26 2.26 0 00.92-.29zm.13.21l24.4 39.43-40.67 32.33-24.28-17.49-5.24-65.44zm54.89 15.2l-30.35 24.12-24.31-39.22 54.23 13.23a2.43 2.43 0 00.43 1.92zm.32.35l-26.24 30.94-4.34-7 30.36-24.14a2.28 2.28 0 00.22.25zm1.47.62l-1.85 72.08-25.76-41.61 26.27-31a2.33 2.33 0 00.5.31 2.11 2.11 0 00.84.27zm36.16 132.49a2.1 2.1 0 00-.49.2l-37.36-60.35 1.86-72.33a3 3 0 00.52-.06zM731 273.13l.84-32.42 37.43 27a2.43 2.43 0 00-.2.35 2.46 2.46 0 00-.2 1.15zm-1.24 41.78a4 4 0 00-2.49.88L696 277l34.74-3.63zm-2.28 7.35l-27.87 42-16.17-42.62 42.32-2.37a4 4 0 001.67 2.99zm-8.35 90.93a2.46 2.46 0 00-.94.11l-18.51-48.8 27.94-42.16a3.1 3.1 0 00.5.29 4 4 0 001.09.29zm-86.69 54.33a2.28 2.28 0 00-.62-.66l45.17-68.13 39.69 16a2.42 2.42 0 00.13 2zm-30.12 105.25l-43.15-112.93 68.83 8.79a2.41 2.41 0 001.4 2.42l.3.1-26.08 101.54a2.39 2.39 0 00-1.3.08zm-.63.33L511.13 457a4.81 4.81 0 001.36-1.78 4.59 4.59 0 00.37-1.27l46.11 5.9 43.19 113a3.17 3.17 0 00-.47.25zM462.25 529l43.42-71.55a3.45 3.45 0 00.47.24 4.79 4.79 0 004.87-.58l90.54 116.09a2.51 2.51 0 00-.66.87v.15zm-45.14 72.32l7.2-84.53L462 529.06l-44 72.51a1.86 1.86 0 00-.2-.1 2.15 2.15 0 00-.69-.19zm-.78 0l-20-81.61 13.12-7.79 14.65 4.79-7.2 84.56a2.47 2.47 0 00-.57.04zm-.68.26l-41.47-68.69 22-13.09 20 81.57a2.36 2.36 0 00-.53.2zm-99.83-34L374 533l41.47 68.68a2.45 2.45 0 00-.89 1v.09zm-.21-.08L277.72 554l69.77-59.85a3.3 3.3 0 001 .77 2.74 2.74 0 002.55 0l22.9 37.93zM142 670.41l135.58-116.33 37.85 13.51-173.34 103zm-.15-.19l115.69-119.84a3.67 3.67 0 001 .71 3.56 3.56 0 004.8-1.81 2.17 2.17 0 00.07-.24l14 5-135.54 116.23zM5.56 451.23a3.75 3.75 0 001.34-1.57.32.32 0 010-.09l249.61 96.9a3.8 3.8 0 00.87 3.8L141.69 670.11a2.06 2.06 0 00-.62-.42 2.4 2.4 0 00-2.17.11zm1.49-2L262 481.29 260 544a3.54 3.54 0 00-3.38 2.16s0 .09-.05.14L7 449.41zm.14-1.25l254.27-23.7a2.44 2.44 0 001.41 1.9 2.7 2.7 0 00.83.19l-1.7 54.75L7.1 449a3.68 3.68 0 00.09-1.06zm-.05-.46l233.91-52.67 21.26 27.27a2.26 2.26 0 00-.66.86 2.36 2.36 0 00-.2 1.13L7.18 447.77a2.89 2.89 0 00-.04-.29zm-.33-.94l137.84-75.1 77.28-1.16 19 24.38L7.1 447.32a4.3 4.3 0 00-.29-.78zm86.49-73.43a2.41 2.41 0 00.21-.93l50.77-.77L6.74 446.39a3.54 3.54 0 00-.35-.51l82.93-72.06a2.51 2.51 0 00.79.56 2.42 2.42 0 003.19-1.23zm104.1-30.64l-52.79 28.76-51.11.73a2.34 2.34 0 00-.07-.45l103.83-29.42a3.45 3.45 0 00.14.38zm17.38-56.28a2.41 2.41 0 002.59-1.07L357 367s-.06.09-.08.14a3.24 3.24 0 00-.16.53l-154.82-25.92a2.4 2.4 0 00-1.4-2.52 1.22 1.22 0 00-.27-.09zm40.27-17.65l102.31 97.9a2 2 0 00-.24.33L217.46 285l.09-.16a2.43 2.43 0 000-1.87l34.64-15a1.85 1.85 0 00.87.94 1.62 1.62 0 001.99-.33zm42.36-8.28L357.89 366a2.24 2.24 0 00-.42.34l-102.31-97.9.05-.05.08-.15c0-.06.07-.13.1-.2a2 2 0 00.13-1zm-74.24-130.11a2.3 2.3 0 00.57-.51l149.14 115.43a4 4 0 00-.44.75 3.94 3.94 0 00-.3 2.2l-74.64 12.06zm.82-3.25l152.3-94.28a2.36 2.36 0 001 .86 2.41 2.41 0 00.87.21l-2.11 209.75A4 4 0 00373 245L223.86 129.55a2.52 2.52 0 00.24-.43 2.39 2.39 0 00-.1-2.18z" fill="#0561a8"/></svg>